<?xml version="1.0" encoding="utf-8"?>
<!-- Generator: Adobe Illustrator 20.1.0, SVG Export Plug-In . SVG Version: 6.00 Build 0)  -->
<svg version="1.1" id="Layer_1" xmlns="http://www.w3.org/2000/svg" xmlns:xlink="http://www.w3.org/1999/xlink" x="0px" y="0px"
	 viewBox="0 0 227.3 115.3" style="enable-background:new 0 0 227.3 115.3;" xml:space="preserve">
<style type="text/css">
	.st0{fill:#FFFFFF;}
</style>
<g>
	<g>
		<g>
			<path class="st0" d="M1.4,110.1V98h2.5c0.9,0,1.5,0,2,0.1c0.4,0.1,0.8,0.2,1.1,0.5c0.4,0.3,0.7,0.7,0.9,1.1s0.3,0.9,0.3,1.5
				s-0.2,1.2-0.5,1.6s-0.7,0.7-1.3,0.9c0.7,0.1,1.3,0.4,1.7,1c0.4,0.5,0.6,1.2,0.6,2c0,0.5-0.1,0.9-0.3,1.4
				c-0.2,0.4-0.4,0.8-0.7,1.1c-0.3,0.3-0.8,0.6-1.3,0.7s-1.3,0.2-2.5,0.2C3.9,110.1,1.4,110.1,1.4,110.1z M2.8,99.3v4h1.1
				c1,0,1.7-0.1,2.2-0.4c0.4-0.3,0.6-0.8,0.6-1.5c0-0.8-0.2-1.3-0.6-1.6c-0.4-0.3-1.1-0.5-2.2-0.5H2.8z M2.8,104.4v4.4h1.1
				c0.8,0,1.3,0,1.7-0.1c0.3-0.1,0.6-0.2,0.8-0.3c0.2-0.2,0.4-0.4,0.6-0.7c0.1-0.3,0.2-0.7,0.2-1c0-0.4-0.1-0.8-0.3-1.1
				c-0.2-0.3-0.4-0.6-0.7-0.8c-0.2-0.1-0.4-0.2-0.7-0.2c-0.3,0-0.6-0.1-1.2-0.1H3.9H2.8V104.4z"/>
		</g>
		<g>
			<path class="st0" d="M11.9,102.6v3.7c0,1.1,0.2,1.8,0.5,2.3c0.3,0.4,0.9,0.6,1.6,0.6c0.8,0,1.3-0.2,1.6-0.6s0.5-1.2,0.5-2.3v-3.7
				h1.3v4.4c0,1.1-0.3,2-0.9,2.6s-1.4,0.9-2.6,0.9c-1.1,0-2-0.3-2.6-0.9s-0.9-1.4-0.9-2.6v-4.4H11.9z"/>
		</g>
		<g>
			<path class="st0" d="M19.1,108.8l1.1-0.7c0.2,0.4,0.5,0.7,0.8,0.9c0.3,0.2,0.7,0.3,1.1,0.3s0.8-0.1,1-0.3
				c0.3-0.2,0.4-0.5,0.4-0.8s-0.1-0.5-0.3-0.7c-0.2-0.2-0.5-0.3-0.9-0.5c0,0-0.1,0-0.2-0.1c-1.8-0.6-2.7-1.4-2.7-2.4
				c0-0.7,0.2-1.2,0.7-1.6s1.1-0.6,1.9-0.6c0.7,0,1.2,0.1,1.7,0.4s0.8,0.6,1,1.1l-1,0.6c-0.2-0.3-0.4-0.6-0.7-0.8
				c-0.3-0.2-0.6-0.3-1-0.3s-0.7,0.1-0.9,0.3c-0.2,0.2-0.4,0.5-0.4,0.8c0,0.5,0.5,0.8,1.5,1.2c0.2,0.1,0.3,0.1,0.4,0.1
				c0.8,0.3,1.4,0.6,1.7,0.9c0.3,0.3,0.5,0.8,0.5,1.3c0,0.7-0.3,1.3-0.8,1.7c-0.5,0.4-1.2,0.7-2,0.7c-0.7,0-1.3-0.1-1.8-0.4
				C19.8,109.7,19.4,109.3,19.1,108.8z"/>
		</g>
		<g>
			<path class="st0" d="M26.6,98.9c0-0.3,0.1-0.5,0.3-0.7c0.2-0.2,0.4-0.3,0.7-0.3c0.3,0,0.5,0.1,0.7,0.3c0.2,0.2,0.3,0.4,0.3,0.7
				c0,0.3-0.1,0.5-0.3,0.7c-0.2,0.2-0.4,0.3-0.7,0.3c-0.3,0-0.5-0.1-0.7-0.3C26.7,99.4,26.6,99.2,26.6,98.9z M26.9,110.1v-7.5h1.3
				v7.5H26.9z"/>
		</g>
		<g>
			<path class="st0" d="M30.9,110.1v-7.5h1.3v1.2c0.3-0.5,0.7-0.8,1.2-1.1c0.5-0.2,1-0.4,1.6-0.4c0.9,0,1.6,0.2,2.1,0.7
				s0.7,1.1,0.7,2v5.1h-1.3v-4.4c0-0.8-0.2-1.3-0.5-1.7c-0.3-0.4-0.8-0.6-1.5-0.6c-0.4,0-0.7,0.1-1,0.2s-0.6,0.3-0.8,0.6
				c-0.2,0.2-0.3,0.4-0.3,0.7c-0.1,0.3-0.1,0.7-0.1,1.3v3.9C32.3,110.1,30.9,110.1,30.9,110.1z"/>
		</g>
		<g>
			<path class="st0" d="M47,106.5h-6v0.1c0,0.8,0.2,1.5,0.7,2s1.1,0.7,1.8,0.7c0.5,0,1-0.1,1.4-0.4s0.8-0.7,1.1-1.2l1,0.7
				c-0.4,0.7-0.9,1.2-1.4,1.5c-0.6,0.3-1.3,0.5-2,0.5c-1.1,0-2.1-0.4-2.8-1.1c-0.7-0.8-1.1-1.8-1.1-3s0.4-2.1,1.1-2.9
				c0.7-0.8,1.6-1.1,2.7-1.1c1.1,0,2,0.4,2.6,1.1c0.7,0.7,1,1.7,1,2.9L47,106.5L47,106.5z M45.6,105.5c0-0.7-0.3-1.2-0.7-1.5
				c-0.4-0.4-0.9-0.5-1.6-0.5c-0.6,0-1.1,0.2-1.6,0.6c-0.4,0.4-0.7,0.9-0.7,1.5L45.6,105.5L45.6,105.5z"/>
		</g>
		<g>
			<path class="st0" d="M48.2,108.8l1.1-0.7c0.2,0.4,0.5,0.7,0.8,0.9c0.3,0.2,0.7,0.3,1.1,0.3c0.4,0,0.8-0.1,1-0.3
				c0.3-0.2,0.4-0.5,0.4-0.8s-0.1-0.5-0.3-0.7s-0.5-0.3-0.9-0.5c0,0-0.1,0-0.2-0.1c-1.8-0.6-2.7-1.4-2.7-2.4c0-0.7,0.2-1.2,0.7-1.6
				s1.1-0.6,1.9-0.6c0.7,0,1.2,0.1,1.7,0.4s0.8,0.6,1,1.1l-1,0.6c-0.2-0.3-0.4-0.6-0.7-0.8c-0.3-0.2-0.6-0.3-1-0.3s-0.7,0.1-0.9,0.3
				c-0.2,0.2-0.4,0.5-0.4,0.8c0,0.5,0.5,0.8,1.5,1.2c0.2,0.1,0.3,0.1,0.4,0.1c0.8,0.3,1.4,0.6,1.7,0.9s0.5,0.8,0.5,1.3
				c0,0.7-0.3,1.3-0.8,1.7c-0.5,0.4-1.2,0.7-2,0.7c-0.7,0-1.3-0.1-1.8-0.4C48.8,109.7,48.4,109.3,48.2,108.8z"/>
		</g>
		<g>
			<path class="st0" d="M55,108.8l1.1-0.7c0.2,0.4,0.5,0.7,0.8,0.9c0.3,0.2,0.7,0.3,1.1,0.3c0.4,0,0.8-0.1,1-0.3
				c0.3-0.2,0.4-0.5,0.4-0.8s-0.1-0.5-0.3-0.7s-0.5-0.3-0.9-0.5c0,0-0.1,0-0.2-0.1c-1.8-0.6-2.7-1.4-2.7-2.4c0-0.7,0.2-1.2,0.7-1.6
				s1.1-0.6,1.9-0.6c0.7,0,1.2,0.1,1.7,0.4s0.8,0.6,1,1.1l-1,0.6c-0.2-0.3-0.4-0.6-0.7-0.8c-0.3-0.2-0.6-0.3-1-0.3s-0.7,0.1-0.9,0.3
				c-0.2,0.2-0.4,0.5-0.4,0.8c0,0.5,0.5,0.8,1.5,1.2c0.2,0.1,0.3,0.1,0.4,0.1c0.8,0.3,1.4,0.6,1.7,0.9s0.5,0.8,0.5,1.3
				c0,0.7-0.3,1.3-0.8,1.7c-0.5,0.4-1.2,0.7-2,0.7c-0.7,0-1.3-0.1-1.8-0.4C55.7,109.7,55.3,109.3,55,108.8z"/>
		</g>
		<g>
			<path class="st0" d="M69.2,104.7v5.4h-1.4V98h2.5c0.9,0,1.5,0,2,0.1c0.4,0.1,0.8,0.2,1.1,0.5c0.4,0.3,0.7,0.7,0.9,1.1
				c0.2,0.5,0.3,1,0.3,1.6s-0.1,1.1-0.3,1.6c-0.2,0.5-0.5,0.9-0.9,1.1c-0.3,0.2-0.7,0.4-1.1,0.5s-1.1,0.1-2,0.1h-0.4h-0.7V104.7z
				 M69.2,103.4h0.7c1.2,0,2.1-0.1,2.5-0.4s0.6-0.8,0.6-1.5c0-0.8-0.2-1.3-0.7-1.6c-0.4-0.3-1.3-0.5-2.5-0.5h-0.7L69.2,103.4
				L69.2,103.4z"/>
		</g>
		<g>
			<path class="st0" d="M75.9,110.1v-7.5H77v1.6c0.3-0.7,0.7-1.1,1.1-1.4s0.9-0.4,1.4-0.4c0.2,0,0.3,0,0.4,0s0.3,0.1,0.4,0.1
				l-0.4,1.2c-0.1,0-0.3-0.1-0.4-0.1s-0.3,0-0.4,0c-0.7,0-1.2,0.2-1.5,0.7s-0.5,1.2-0.5,2.2v3.7L75.9,110.1L75.9,110.1z"/>
		</g>
		<g>
			<path class="st0" d="M81.2,106.3c0-0.6,0.1-1.1,0.3-1.6c0.2-0.5,0.5-0.9,0.9-1.3s0.8-0.7,1.3-0.9c0.5-0.2,1-0.3,1.6-0.3
				c0.5,0,1.1,0.1,1.6,0.3c0.5,0.2,0.9,0.5,1.3,0.9s0.7,0.8,0.9,1.3c0.2,0.5,0.3,1,0.3,1.6c0,0.5-0.1,1.1-0.3,1.6
				c-0.2,0.5-0.5,0.9-0.9,1.3s-0.8,0.7-1.3,0.9c-0.5,0.2-1,0.3-1.6,0.3s-1.1-0.1-1.6-0.3c-0.5-0.2-0.9-0.5-1.3-0.9s-0.7-0.8-0.9-1.3
				C81.3,107.4,81.2,106.9,81.2,106.3z M82.6,106.3c0,0.8,0.3,1.5,0.8,2c0.5,0.6,1.2,0.8,1.9,0.8c0.8,0,1.4-0.3,1.9-0.8
				c0.5-0.6,0.8-1.2,0.8-2s-0.3-1.5-0.8-2c-0.5-0.6-1.2-0.8-1.9-0.8c-0.8,0-1.4,0.3-1.9,0.8C82.9,104.9,82.6,105.5,82.6,106.3z"/>
		</g>
		<g>
			<path class="st0" d="M98.4,97.3v12.8h-1.3v-1.4c-0.3,0.5-0.7,1-1.2,1.3s-1,0.4-1.6,0.4c-1.1,0-2-0.4-2.6-1.1c-0.7-0.7-1-1.7-1-3
				c0-1.2,0.3-2.2,1-3c0.6-0.7,1.5-1.1,2.6-1.1c0.6,0,1.2,0.1,1.6,0.4c0.5,0.3,0.8,0.7,1.1,1.3v-6.6L98.4,97.3L98.4,97.3z
				 M97.2,106.4c0-0.8-0.2-1.5-0.7-2s-1.1-0.8-1.8-0.8s-1.4,0.2-1.8,0.7s-0.6,1.1-0.6,1.9c0,0.9,0.2,1.7,0.7,2.2
				c0.4,0.5,1,0.8,1.8,0.8s1.4-0.2,1.9-0.7C97,107.9,97.2,107.2,97.2,106.4z"/>
		</g>
		<g>
			<path class="st0" d="M102.3,102.6v3.7c0,1.1,0.2,1.8,0.5,2.3c0.3,0.4,0.9,0.6,1.6,0.6c0.8,0,1.3-0.2,1.6-0.6
				c0.3-0.4,0.5-1.2,0.5-2.3v-3.7h1.3v4.4c0,1.1-0.3,2-0.9,2.6s-1.4,0.9-2.6,0.9c-1.1,0-2-0.3-2.6-0.9s-0.9-1.4-0.9-2.6v-4.4H102.3z
				"/>
		</g>
		<g>
			<path class="st0" d="M116.1,108.3v1.5c-0.3,0.2-0.7,0.4-1.1,0.5s-0.9,0.2-1.4,0.2c-1.2,0-2.1-0.4-2.8-1.1
				c-0.7-0.7-1.1-1.7-1.1-2.9c0-1.2,0.4-2.2,1.1-3s1.7-1.1,2.8-1.1c0.4,0,0.8,0,1.2,0.1c0.4,0.1,0.8,0.2,1.1,0.4v1.4
				c-0.3-0.2-0.7-0.4-1-0.5c-0.4-0.1-0.7-0.2-1.1-0.2c-0.8,0-1.5,0.3-2,0.8s-0.8,1.2-0.8,2.1c0,0.8,0.3,1.4,0.8,1.9s1.2,0.8,1.9,0.8
				c0.4,0,0.8-0.1,1.1-0.2C115.3,108.8,115.7,108.6,116.1,108.3z"/>
		</g>
		<g>
			<path class="st0" d="M118.1,103.6h-1.4v-1.1h1.4v-3h1.3v3h1.4v1.1h-1.4v6.5h-1.3V103.6z"/>
		</g>
		<g>
			<path class="st0" d="M121.4,108.8l1.1-0.7c0.2,0.4,0.5,0.7,0.8,0.9c0.3,0.2,0.7,0.3,1.1,0.3s0.8-0.1,1-0.3
				c0.3-0.2,0.4-0.5,0.4-0.8s-0.1-0.5-0.3-0.7c-0.2-0.2-0.5-0.3-0.9-0.5c0,0-0.1,0-0.2-0.1c-1.8-0.6-2.7-1.4-2.7-2.4
				c0-0.7,0.2-1.2,0.7-1.6s1.1-0.6,1.9-0.6c0.7,0,1.2,0.1,1.7,0.4s0.8,0.6,1,1.1l-1,0.6c-0.2-0.3-0.4-0.6-0.7-0.8
				c-0.3-0.2-0.6-0.3-1-0.3s-0.7,0.1-0.9,0.3c-0.2,0.2-0.4,0.5-0.4,0.8c0,0.5,0.5,0.8,1.5,1.2c0.2,0.1,0.3,0.1,0.4,0.1
				c0.8,0.3,1.4,0.6,1.7,0.9c0.3,0.3,0.5,0.8,0.5,1.3c0,0.7-0.3,1.3-0.8,1.7c-0.5,0.4-1.2,0.7-2,0.7c-0.7,0-1.3-0.1-1.8-0.4
				C122.1,109.7,121.7,109.3,121.4,108.8z"/>
		</g>
		<g>
			<path class="st0" d="M141.1,102.6v7.5h-1.3v-1.4c-0.3,0.5-0.7,1-1.2,1.3s-1,0.4-1.6,0.4c-1.1,0-2-0.4-2.6-1.1c-0.7-0.7-1-1.7-1-3
				c0-1.2,0.3-2.2,1-3c0.6-0.7,1.5-1.1,2.6-1.1c0.6,0,1.2,0.1,1.6,0.4c0.5,0.3,0.8,0.7,1.1,1.3v-1.4L141.1,102.6L141.1,102.6z
				 M139.8,106.4c0-0.9-0.2-1.5-0.7-2.1c-0.5-0.5-1.1-0.8-1.8-0.8c-0.8,0-1.4,0.2-1.8,0.7c-0.4,0.5-0.7,1.1-0.7,2s0.2,1.6,0.7,2.1
				c0.4,0.5,1.1,0.7,1.9,0.7c0.8,0,1.4-0.2,1.8-0.7C139.6,107.9,139.8,107.2,139.8,106.4z"/>
		</g>
		<g>
			<path class="st0" d="M143.7,110.1v-7.5h1.3v1.2c0.3-0.5,0.7-0.8,1.2-1.1c0.5-0.2,1-0.4,1.6-0.4c0.9,0,1.6,0.2,2.1,0.7
				s0.7,1.1,0.7,2v5.1h-1.3v-4.4c0-0.8-0.2-1.3-0.5-1.7c-0.3-0.4-0.8-0.6-1.5-0.6c-0.4,0-0.7,0.1-1,0.2s-0.6,0.3-0.8,0.6
				c-0.2,0.2-0.3,0.4-0.3,0.7c-0.1,0.3-0.1,0.7-0.1,1.3v3.9C145.1,110.1,143.7,110.1,143.7,110.1z"/>
		</g>
		<g>
			<path class="st0" d="M160.1,97.3v12.8h-1.3v-1.4c-0.3,0.5-0.7,1-1.2,1.3s-1,0.4-1.6,0.4c-1.1,0-2-0.4-2.6-1.1c-0.7-0.7-1-1.7-1-3
				c0-1.2,0.3-2.2,1-3c0.6-0.7,1.5-1.1,2.6-1.1c0.6,0,1.2,0.1,1.6,0.4c0.5,0.3,0.8,0.7,1.1,1.3v-6.6L160.1,97.3L160.1,97.3z
				 M158.8,106.4c0-0.8-0.2-1.5-0.7-2s-1.1-0.8-1.8-0.8c-0.8,0-1.4,0.2-1.8,0.7c-0.4,0.5-0.6,1.1-0.6,1.9c0,0.9,0.2,1.7,0.7,2.2
				c0.4,0.5,1,0.8,1.8,0.8s1.4-0.2,1.9-0.7C158.6,107.9,158.8,107.2,158.8,106.4z"/>
		</g>
		<g>
			<path class="st0" d="M172.2,103.4c0.8,0.3,1.4,0.8,1.8,1.3c0.4,0.6,0.6,1.2,0.6,2c0,1.1-0.4,2-1.1,2.7c-0.7,0.7-1.6,1-2.8,1
				c-0.9,0-1.7-0.2-2.4-0.7c-0.6-0.5-1.1-1.2-1.3-2.1l1.3-0.6c0.2,0.7,0.5,1.3,0.9,1.7c0.4,0.4,0.9,0.6,1.5,0.6
				c0.7,0,1.3-0.2,1.7-0.6s0.7-1,0.7-1.6c0-0.5-0.2-1-0.5-1.4s-0.8-0.7-1.4-1l-1.5-0.6c-0.8-0.3-1.4-0.8-1.8-1.3
				c-0.4-0.5-0.6-1.2-0.6-1.9c0-0.9,0.3-1.6,1-2.1c0.6-0.6,1.4-0.8,2.4-0.8c0.7,0,1.4,0.2,1.9,0.5s0.9,0.8,1.2,1.4l-1.2,0.8
				c-0.3-0.5-0.6-0.8-0.9-1c-0.3-0.2-0.7-0.3-1.1-0.3c-0.5,0-1,0.2-1.3,0.5s-0.5,0.7-0.5,1.3c0,0.4,0.1,0.8,0.4,1.1
				c0.3,0.3,0.7,0.6,1.2,0.8L172.2,103.4z"/>
		</g>
		<g>
			<path class="st0" d="M177.5,102.6v3.7c0,1.1,0.2,1.8,0.5,2.3c0.3,0.4,0.9,0.6,1.6,0.6s1.3-0.2,1.6-0.6s0.5-1.2,0.5-2.3v-3.7h1.3
				v4.4c0,1.1-0.3,2-0.9,2.6c-0.6,0.6-1.4,0.9-2.6,0.9c-1.1,0-2-0.3-2.6-0.9s-0.9-1.4-0.9-2.6v-4.4H177.5z"/>
		</g>
		<g>
			<path class="st0" d="M185.5,113.8v-11.2h1.2v1.4c0.3-0.5,0.7-1,1.2-1.3s1-0.4,1.6-0.4c1.1,0,2,0.4,2.6,1.1c0.7,0.7,1,1.7,1,2.9
				c0,1.2-0.3,2.2-1,3c-0.6,0.7-1.5,1.1-2.6,1.1c-0.6,0-1.2-0.1-1.6-0.4c-0.5-0.3-0.8-0.7-1.1-1.3v5h-1.3V113.8z M186.8,106.3
				c0,0.8,0.2,1.5,0.7,2s1.1,0.8,1.9,0.8c0.8,0,1.3-0.2,1.8-0.7c0.4-0.5,0.6-1.1,0.6-1.9c0-0.9-0.2-1.7-0.6-2.2
				c-0.4-0.5-1-0.8-1.8-0.8s-1.4,0.2-1.9,0.7C187,104.8,186.8,105.5,186.8,106.3z"/>
		</g>
		<g>
			<path class="st0" d="M195.2,113.8v-11.2h1.2v1.4c0.3-0.5,0.7-1,1.2-1.3s1-0.4,1.6-0.4c1.1,0,2,0.4,2.6,1.1c0.7,0.7,1,1.7,1,2.9
				c0,1.2-0.3,2.2-1,3c-0.6,0.7-1.5,1.1-2.6,1.1c-0.6,0-1.2-0.1-1.6-0.4c-0.5-0.3-0.8-0.7-1.1-1.3v5h-1.3V113.8z M196.4,106.3
				c0,0.8,0.2,1.5,0.7,2s1.1,0.8,1.9,0.8c0.8,0,1.3-0.2,1.8-0.7c0.4-0.5,0.6-1.1,0.6-1.9c0-0.9-0.2-1.7-0.6-2.2s-1-0.8-1.8-0.8
				s-1.4,0.2-1.9,0.7S196.4,105.5,196.4,106.3z"/>
		</g>
		<g>
			<path class="st0" d="M204.9,110.1V97.3h1.3v12.8C206.2,110.1,204.9,110.1,204.9,110.1z"/>
		</g>
		<g>
			<path class="st0" d="M208.7,98.9c0-0.3,0.1-0.5,0.3-0.7s0.4-0.3,0.7-0.3s0.5,0.1,0.7,0.3c0.2,0.2,0.3,0.4,0.3,0.7
				c0,0.3-0.1,0.5-0.3,0.7s-0.4,0.3-0.7,0.3s-0.5-0.1-0.7-0.3C208.8,99.4,208.7,99.2,208.7,98.9z M209,110.1v-7.5h1.3v7.5H209z"/>
		</g>
		<g>
			<path class="st0" d="M219.7,106.5h-6v0.1c0,0.8,0.2,1.5,0.7,2s1.1,0.7,1.8,0.7c0.5,0,1-0.1,1.4-0.4s0.8-0.7,1.1-1.2l1,0.7
				c-0.4,0.7-0.9,1.2-1.4,1.5c-0.6,0.3-1.3,0.5-2,0.5c-1.1,0-2.1-0.4-2.8-1.1c-0.7-0.8-1.1-1.8-1.1-3s0.4-2.1,1.1-2.9
				c0.7-0.8,1.6-1.1,2.7-1.1c1.1,0,2,0.4,2.6,1.1c0.7,0.7,1,1.7,1,2.9v0.2H219.7z M218.3,105.5c0-0.7-0.3-1.2-0.7-1.5
				c-0.4-0.4-0.9-0.5-1.6-0.5c-0.6,0-1.1,0.2-1.6,0.6c-0.4,0.4-0.7,0.9-0.7,1.5L218.3,105.5L218.3,105.5z"/>
		</g>
		<g>
			<path class="st0" d="M220.9,108.8l1.1-0.7c0.2,0.4,0.5,0.7,0.8,0.9c0.3,0.2,0.7,0.3,1.1,0.3c0.4,0,0.8-0.1,1-0.3
				c0.3-0.2,0.4-0.5,0.4-0.8s-0.1-0.5-0.3-0.7s-0.5-0.3-0.9-0.5c0,0-0.1,0-0.2-0.1c-1.8-0.6-2.7-1.4-2.7-2.4c0-0.7,0.2-1.2,0.7-1.6
				s1.1-0.6,1.9-0.6c0.7,0,1.2,0.1,1.7,0.4s0.8,0.6,1,1.1l-1,0.6c-0.2-0.3-0.4-0.6-0.7-0.8c-0.3-0.2-0.6-0.3-1-0.3s-0.7,0.1-0.9,0.3
				c-0.2,0.2-0.4,0.5-0.4,0.8c0,0.5,0.5,0.8,1.5,1.2c0.2,0.1,0.3,0.1,0.4,0.1c0.8,0.3,1.4,0.6,1.7,0.9s0.5,0.8,0.5,1.3
				c0,0.7-0.3,1.3-0.8,1.7c-0.5,0.4-1.2,0.7-2,0.7c-0.7,0-1.3-0.1-1.8-0.4C221.6,109.7,221.2,109.3,220.9,108.8z"/>
		</g>
	</g>
	<g>
		<g>
			<g>
				<path class="st0" d="M193.2,13.4C172,5.5,143.9,1.2,114,1.2S56,5.5,34.8,13.4c-21.6,8-33.4,18.9-33.4,30.5s11.9,22.5,33.4,30.5
					C56,82.2,84.1,86.6,114,86.6s58-4.3,79.2-12.2c21.6-8,33.4-18.9,33.4-30.5C226.6,32.2,214.7,21.4,193.2,13.4z M215.7,59
					c-5.5,4.8-13.4,9.2-23.5,12.9C171.4,79.8,143.6,84,114,84s-57.4-4.2-78.3-12c-10.1-3.8-18-8.1-23.5-12.9
					c-5.5-4.9-8.3-10-8.3-15.2s2.8-10.3,8.3-15.2c5.5-4.8,13.4-9.2,23.5-12.9C56.6,8,84.4,3.7,114,3.7s57.4,4.3,78.3,12.1
					c10.1,3.8,18,8.1,23.5,12.9c5.5,4.9,8.3,10,8.3,15.2S221.3,54.2,215.7,59z"/>
			</g>
			<g>
				<path class="st0" d="M176,25.2c-16.6-5.3-38.6-8.2-62.1-8.2s-45.6,3-62.2,8.2c-1.4,0.5-2.8,0.9-4.2,1.4c1.5,0.4,2.8,0.9,3.9,1.6
					l0.9-1.6h3.5L59,38.3l-4.6,1.5c-1.6-2.6-2.8-4.3-3.7-5.2s-2-1.6-3.2-2.2c-1.2-0.5-2.3-0.8-3.5-0.8c-1.6,0-3.1,0.5-4.5,1.4
					s-2.5,2.3-3.3,4.1S35,41,35,43.6c0,2.8,0.4,5.2,1.3,7.2c0.9,2,2,3.5,3.5,4.5c1.4,1,3,1.5,4.7,1.5c1.2,0,2.4-0.2,3.4-0.7
					c1.1-0.5,1.8-1,2.2-1.6s0.6-1.4,0.6-2.4v-1.3c0-0.9-0.1-1.5-0.2-1.7c-0.2-0.3-0.4-0.6-0.7-0.7C49.6,48.1,49,48,48.1,48h-2v-4.9
					h17.2V48H62c-0.8,0-1.4,0.1-1.7,0.2c-0.3,0.2-0.5,0.4-0.7,0.7s-0.2,1-0.2,1.9v11h-5.2l-1.3-2.5c-1.4,0.9-2.8,1.6-4.3,2.1
					c1,0.4,2.1,0.7,3.1,1c16.6,5.3,38.6,8.2,62.1,8.2s45.6-2.9,62.1-8.2c15.9-5.1,25-11.9,25-18.7S191.9,30.3,176,25.2z M185.1,42.8
					c-0.4-0.3-1.2-0.6-2.3-0.9l-2.6-0.7c-0.4-0.1-0.9-0.3-1.6-0.6c-0.7-0.3-1.2-0.6-1.5-0.9c-0.4-0.3-0.6-0.8-0.9-1.3
					c-0.2-0.5-0.4-1.1-0.4-1.6c0-0.8,0.2-1.6,0.7-2.2c0.4-0.7,1.1-1.2,2-1.7c0.9-0.4,1.9-0.6,3-0.6c1.3,0,2.5,0.3,3.6,1l0.4-0.8h1.6
					l1.3,5.1l-2,0.6c-0.7-1.2-1.4-2.1-2.3-2.7c-0.9-0.6-1.8-0.9-2.7-0.9c-0.6,0-1.1,0.1-1.5,0.4c-0.4,0.3-0.5,0.5-0.5,0.9
					s0.2,0.7,0.5,1s0.9,0.6,1.8,0.8l2.9,0.9c1.6,0.5,2.8,1.1,3.5,1.9c0.7,0.8,1,1.7,1,2.7c0,1.3-0.5,2.4-1.6,3.4
					c-1.2,1-2.6,1.5-4.4,1.5c-0.8,0-1.6-0.1-2.2-0.3c-0.7-0.2-1.4-0.6-2.1-1l-0.5,1.1h-1.6l-1.1-5.9l2-0.5c0.5,1.2,1.2,2.2,2.3,3
					c1,0.8,2.1,1.2,3.4,1.2c0.5,0,1-0.1,1.4-0.2c0.4-0.1,0.6-0.3,0.8-0.6c0.2-0.2,0.3-0.5,0.3-0.8C185.7,43.5,185.5,43.1,185.1,42.8
					z M171.4,32.8c0.1-0.4,0.4-1,1-1s0.9,0.6,1,1c0.1,0.2,0.1,0.5,0.1,0.7c-0.1,1-0.6,4.4-1.1,4.4s-1-3.3-1.1-4.4
					C171.3,33.3,171.4,33,171.4,32.8z M152.4,45.6h0.7c0.4,0,0.6,0,0.8-0.1s0.3-0.2,0.3-0.3s0.1-0.4,0.1-0.8v-8.6
					c0-0.3,0-0.6-0.1-0.7c-0.1-0.1-0.1-0.2-0.3-0.3s-0.4-0.1-0.6-0.1H153h-0.6v-2.2h9.4c0.6,0,1.3,0.1,2,0.2c0.7,0.1,1.4,0.4,2,0.7
					c0.6,0.4,1,0.8,1.4,1.4c0.3,0.6,0.5,1.2,0.5,1.9c0,1.2-0.4,2.1-1.2,2.8s-1.8,1.2-2.9,1.4l3.1,3.7l0.1,0.2
					c0.2,0.2,0.4,0.4,0.6,0.6c0.2,0.1,0.3,0.2,0.5,0.3s0.4,0.1,0.7,0.1h0.7v2.1h-4.9l-4.9-6.6h-1.3v3c0,0.5,0,0.9,0.1,1
					s0.2,0.2,0.3,0.3s0.4,0.1,0.8,0.1h0.7v2.1h-7.5v-2.2H152.4z M136.1,45.6c0.4,0,0.7,0,0.8-0.1c0.2-0.1,0.3-0.2,0.4-0.3
					c0.1-0.1,0.2-0.4,0.4-0.7l4.7-12h3.4l4.6,11.8c0.2,0.6,0.5,1,0.7,1.2c0.2,0.1,0.5,0.2,1.1,0.2v2.1H145v-2.1h0.4
					c0.4,0,0.7-0.1,0.8-0.2c0.2-0.1,0.2-0.2,0.2-0.4c0-0.1-0.1-0.4-0.2-0.8l-0.5-1.4h-4.6l-0.6,1.5c-0.1,0.3-0.2,0.5-0.2,0.6
					s0,0.2,0.1,0.3s0.2,0.2,0.4,0.2c0.1,0,0.5,0,1,0v2.1h-5.9v-2H136.1z M118,45.6h0.6c0.4,0,0.7,0,0.9-0.1c0.1-0.1,0.3-0.2,0.3-0.3
					c0.1-0.1,0.1-0.4,0.1-0.9V36c0-0.5,0-0.8-0.1-0.9c-0.1-0.2-0.2-0.3-0.3-0.3c-0.1-0.1-0.4-0.1-0.8-0.1H118v-2.1h7.5v2.1H125
					c-0.5,0-0.8,0-0.9,0.1c-0.2,0.1-0.3,0.2-0.4,0.3s-0.1,0.4-0.1,0.8V40l4.8-4.4c0.2-0.2,0.3-0.3,0.4-0.4c0-0.1,0.1-0.1,0.1-0.2
					c0-0.1,0-0.2-0.1-0.2c-0.1-0.1-0.3-0.1-0.6-0.1h-0.6v-2.1h6.9v2.1h-0.2c-0.3,0-0.5,0-0.7,0c-0.1,0-0.3,0.1-0.5,0.2
					c-0.2,0.1-0.4,0.3-0.7,0.5l-3.7,3.2l4.4,5.9c0.4,0.5,0.7,0.8,0.8,0.9c0.2,0.1,0.6,0.2,1,0.2h0.3v2.1h-7.7v-2.1h0.3
					c0.6,0,0.9,0,1-0.1s0.2-0.1,0.2-0.2c0-0.1-0.1-0.3-0.3-0.6l-2.7-3.8l-2.3,2v1.5c0,0.4,0,0.6,0.1,0.8c0.1,0.1,0.2,0.2,0.3,0.3
					c0.1,0.1,0.4,0.1,0.8,0.1h0.6v2.1H118V45.6z M103.5,45.6h0.7c0.3,0,0.5,0,0.7-0.1s0.3-0.2,0.3-0.3c0.1-0.1,0.1-0.4,0.1-0.7v-8.7
					c0-0.4,0-0.6-0.1-0.8s-0.2-0.3-0.3-0.4c-0.1-0.1-0.3-0.1-0.6-0.1h-0.8v-2.1h7.5v2.1h-0.7c-0.4,0-0.6,0-0.7,0.1
					c-0.2,0.1-0.3,0.2-0.4,0.3s-0.1,0.4-0.1,0.7v8.7c0,0.4,0,0.6,0,0.6s0.1,0.1,0.2,0.2c0.1,0,0.3,0.1,0.6,0.1c1,0,1.8-0.1,2.4-0.4
					c0.6-0.3,1.1-0.7,1.6-1.2c0.5-0.6,0.9-1.3,1.2-2.3l2,0.7l-2,5.7h-11.7v-2.1H103.5z M87.7,34.4c1.5-1.5,3.5-2.2,6-2.2
					c2.4,0,4.4,0.7,5.9,2.2s2.3,3.4,2.3,5.7c0,1.6-0.3,2.9-1,4.1c-0.7,1.2-1.6,2.1-2.8,2.8c-1.2,0.7-2.7,1-4.4,1
					c-2.3,0-4.1-0.6-5.5-1.9c-1.7-1.5-2.6-3.5-2.6-6C85.4,37.8,86.2,35.8,87.7,34.4z M67.3,45.6h0.5c0.4,0,0.7,0,0.9-0.1
					c0.2-0.1,0.3-0.2,0.3-0.3c0.1-0.1,0.1-0.4,0.1-0.9V36c0-0.5,0-0.9-0.1-1c-0.1-0.2-0.2-0.3-0.3-0.3c-0.1-0.1-0.4-0.1-0.8-0.1
					h-0.7v-2.1h7.5v2.1H74c-0.4,0-0.6,0-0.8,0.1c-0.1,0.1-0.2,0.2-0.3,0.3c0.1,0.1,0.1,0.4,0.1,0.9v2.7h5.6v-2.9
					c0-0.4,0-0.6-0.1-0.7c-0.1-0.2-0.2-0.3-0.3-0.4c-0.1-0.1-0.4-0.1-0.9-0.1h-0.6v-2.1h7.5v2.1h-0.6c-0.4,0-0.7,0-0.8,0.1
					c-0.1,0.1-0.2,0.2-0.3,0.3s-0.1,0.5-0.1,1v8.3c0,0.5,0,0.8,0.1,1c0.1,0.1,0.2,0.3,0.3,0.3c0.1,0.1,0.5,0.1,1,0.1h0.4v2.1h-7.5
					v-2.1h0.5c0.5,0,0.8,0,0.9-0.1c0.2-0.1,0.3-0.2,0.3-0.3c0.1-0.1,0.1-0.5,0.1-1V41H73v3.2c0,0.5,0,0.8,0.1,1s0.2,0.3,0.3,0.4
					c0.2,0.1,0.5,0.1,0.9,0.1h0.5v2.1h-7.5V45.6z M99,58.8h-0.3c-0.2,0-0.3,0-0.4,0.1c-0.1,0-0.1,0.1-0.1,0.2c0,0.1,0,0.2,0,0.4v4.3
					c0,0.2,0,0.4,0,0.4c0,0.1,0.1,0.1,0.1,0.1c0.1,0,0.2,0.1,0.3,0.1H99v1.1h-3.8v-1.1h0.3c0.2,0,0.4,0,0.4,0c0.1,0,0.1-0.1,0.1-0.1
					c0-0.1,0-0.2,0-0.4v-4.3c0-0.2,0-0.4,0-0.5s-0.1-0.1-0.2-0.2c-0.1,0-0.2,0-0.4,0h-0.3v-1.1H99V58.8z M107.5,58.8h-0.4
					c-0.2,0-0.3,0-0.4,0.1c-0.1,0-0.1,0.1-0.2,0.2c0,0.1,0,0.2,0,0.5v6h-1.6l-2.9-5.7v4c0,0.2,0,0.4,0,0.4c0,0.1,0.1,0.1,0.1,0.1
					c0.1,0,0.2,0.1,0.4,0.1h0.4v1.1h-3.2v-1.1h0.3c0.2,0,0.3,0,0.4,0s0.1-0.1,0.2-0.2c0-0.1,0.1-0.2,0.1-0.3v-4.4
					c0-0.2,0-0.3-0.1-0.4c0-0.1-0.1-0.1-0.1-0.2c-0.1,0-0.2-0.1-0.3-0.1h-0.4v-1.1h3.1l2.3,4.5v-2.8c0-0.2,0-0.4,0-0.4
					c0-0.1-0.1-0.2-0.1-0.2c-0.1,0-0.2-0.1-0.4-0.1h-0.4v-1.1h3.2V58.8z M114.4,64.9c-0.7,0.5-1.5,0.7-2.4,0.7c-0.7,0-1.4-0.2-2-0.5
					s-1.1-0.8-1.4-1.5c-0.3-0.6-0.5-1.3-0.5-2.1c0-0.7,0.2-1.4,0.5-2s0.8-1.1,1.4-1.4c0.6-0.3,1.2-0.5,2-0.5c0.7,0,1.4,0.2,1.9,0.5
					l0.2-0.3h0.8l0.8,2.8l-1,0.3c-0.3-0.7-0.7-1.1-1-1.4c-0.4-0.4-0.9-0.6-1.4-0.6c-0.4,0-0.7,0.1-1,0.3s-0.6,0.5-0.7,0.9
					c-0.2,0.4-0.3,0.8-0.3,1.4c0,0.8,0.2,1.5,0.6,2c0.4,0.6,1,0.9,1.6,0.9c0.4,0,0.8-0.1,1.2-0.4c0.5-0.3,0.9-0.7,1.3-1.2l0.9,0.6
					C115.4,64.1,114.9,64.6,114.4,64.9z M118.8,65.3c-0.2,0.2-0.4,0.3-0.7,0.3c-0.3,0-0.5-0.1-0.7-0.3c-0.2-0.2-0.3-0.4-0.3-0.7
					c0-0.3,0.1-0.5,0.3-0.7c0.2-0.2,0.4-0.3,0.7-0.3c0.3,0,0.5,0.1,0.7,0.3s0.3,0.4,0.3,0.7C119.1,64.8,119,65.1,118.8,65.3z
					 M189.1,52.7H68.9v-1.3h120.2V52.7z"/>
			</g>
			<path class="st0" d="M93.6,45.5c1.1,0,2.1-0.4,2.7-1.3c0.8-1,1.2-2.4,1.2-4.1c0-1.2-0.2-2.2-0.5-3.1c-0.3-0.8-0.8-1.4-1.4-1.9
				c-0.6-0.4-1.2-0.6-1.9-0.6c-1.2,0-2.1,0.4-2.8,1.3c-0.9,1.1-1.3,2.5-1.3,4.2s0.4,3.1,1.2,4.1C91.5,45.1,92.4,45.5,93.6,45.5z"/>
			<polygon class="st0" points="143.6,36.4 142,40.6 145.1,40.6 			"/>
			<g>
				<path class="st0" d="M113.8,10.1c-52.9,0-95.7,15.1-95.7,33.7S61,77.5,113.8,77.5c52.9,0,95.7-15.1,95.7-33.7
					C209.6,25.3,166.7,10.1,113.8,10.1z M176.7,65c-16.8,5.3-39.2,8.3-62.9,8.3S67.7,70.4,50.9,65c-2.5-0.8-4.8-1.6-7-2.5
					c-0.4,0-0.8,0-1.3,0c-3.2,0-6.1-0.8-8.8-2.3c-2.6-1.6-4.7-3.8-6.3-6.6c-0.6-1.1-1-2.2-1.4-3.3c-0.6-1.9-0.9-4-0.9-6.1
					c0-2.6,0.4-5,1.3-7.2c0.3-0.7,0.6-1.4,1-2.1c1.5-2.7,3.7-4.9,6.4-6.5c2.5-1.5,5.3-2.2,8.2-2.3c2.7-1.1,5.6-2.2,8.8-3.2
					c16.8-5.3,39.2-8.3,62.9-8.3s46.1,2.9,62.9,8.3c17.3,5.5,26.8,13,26.8,21.1C203.5,52,194,59.5,176.7,65z"/>
			</g>
			<path class="st0" d="M162.3,38.6c0.4-0.2,0.8-0.4,1-0.7s0.3-0.7,0.3-1.1c0-0.4-0.1-0.7-0.3-1s-0.5-0.5-0.9-0.6s-1-0.2-1.9-0.2
				H158v4h2.3C161.2,38.9,161.9,38.8,162.3,38.6z"/>
		</g>
	</g>
</g>
</svg>
