<?xml version="1.0" encoding="utf-8"?>
<!-- Generator: Adobe Illustrator 20.1.0, SVG Export Plug-In . SVG Version: 6.00 Build 0)  -->
<svg version="1.1" id="Layer_1" xmlns="http://www.w3.org/2000/svg" xmlns:xlink="http://www.w3.org/1999/xlink" x="0px" y="0px"
	 viewBox="0 0 225 88" style="enable-background:new 0 0 225 88;" xml:space="preserve">
<style type="text/css">
	.st0{fill:#FFFFFF;}
</style>
<g>
	<g>
		<path class="st0" d="M54,79.9c-4.8,0-8.1-5.3-6.1-13.8c2-8.5,3.7-13,1.4-14.6C62,43.8,73.6,36,76.6,20.8
			c3-15.2-7.7-20.2-19.9-17.5C44.6,5.9,22.9,17.1,9.6,36.3c-13.3,19.2-10.5,38.5-4.9,46c5.6,7.5,12.2,6.8,17.1,0
			c3.5-4.8,6.6-12.1,8.1-20.5c2-0.9,3.9-1.7,5.2-2.5c5.5-2.9,8.9-5.8,9.7-3.7c0.8,2.1-3,15.4-0.4,22.8c2.7,7.4,10.2,8.1,13.7,4.2
			c3.7-4.2,4-8.4,4-8.4S58.8,79.9,54,79.9z M25.8,59.4c-0.2,0-0.5,0-0.7,0c-0.1,0-0.2,0-0.4,0c-0.5-0.1-0.8-0.3-0.8-0.5
			c0-0.4,1-1,2.1-1.4C25.9,58.1,25.8,58.7,25.8,59.4z M41.4,49.9c-3.4,0.7-7.1,1.8-10.6,3c0-0.6,0-1.3,0-1.9c0-12.9-4.1-8.1-4.1-6.8
			c0,0.5-0.1,5-0.5,10.4c-7,2.9-12.3,6.2-11.5,8.9c0.7,2.6,5.5,1.8,10.5,0.1c-0.8,5-2,9.6-3.8,11.9c-5,6.3-10.2,6.2-12.4-1.3
			c-2.2-7.5-0.7-23.3,5.4-31.9c6.1-8.7,24.2-28.9,40-30.6S69,22,65.5,27.8C62,33.5,54.1,41.7,41.4,49.9z"/>
		<path class="st0" d="M116.9,45.1c-0.9-0.5-2.7,2.8-4.2,4.6c-1.5,1.8-3.5,2-3.9,0.6c-0.4-1.3,2.1-5.1,4.7-8.7
			c2.6-3.6,3.5-5.6,3-6.8c-0.5-1.3-6.3-0.6-6.3-0.6s3.2-3.9,5.3-7.8c2.2-4,2.8-9.6-1.1-9.6s-7.2,2.3-12.5,10.9S93.3,48,93.3,48
			s-5.8,4.2-8.4,5c-2.5,0.8-3.3-1.4-2.8-4.3c0.5-2.9,5.3-7.5,6.3-6.8s0.4,1.4-0.8,2.5c-1.2,1.1-1.5,2.9-0.4,3.4
			c1.1,0.5,2.2-1.1,3.4-2.8s4.4-5.3,0.5-6c-3.9-0.7-9.8,5.7-12.2,8.5c-2.4,2.7-5.3,7.2-6.5,6.4s1.5-4.8,2.7-6.8
			c1.2-2-1.6-2.5-2.8-1.1c-1.2,1.4-5.5,6.9-10.1,11.7c-4.6,4.8-9.5,3.9-9.5,3.9c1.1,1.5,2,2.8,4.1,2.8c5.7,0,11-8.6,11-8.6
			s0,3,2.2,3c2.2,0,3-0.8,8.4-5.7c0.2,1.7,1.1,4.3,4.2,4.3c3.1,0,3-1.1,9.8-4.7c-0.5,2.5-0.5,3.3,1.3,3.3c1.8-0.1,2-1,2.5-2.9
			s1.6-5,2.9-6.5s7.1-7.1,9.6-8c2.5-0.9,3.1,0.6,2.4,1.8s-3.8,5.5-5.4,8.5c-1.6,3-1.3,6.9,2.7,6.9c4.1,0,6.7-3.7,8.2-6.6
			C118.2,46,117.8,45.6,116.9,45.1z M100.2,39.3c0,0,3-7.8,7.6-13.9c4.6-6.1,6.9-4.6,6-2.4C113,25.3,107.2,36.8,100.2,39.3z"/>
		<ellipse transform="matrix(0.4202 -0.9074 0.9074 0.4202 12.1496 91.1463)" class="st0" cx="77.4" cy="36.1" rx="5.1" ry="4.1"/>
	</g>
	<path class="st0" d="M144,34.2c0,0,10-7.8,14.6-12.8s6.9-8.7,8.4-11.3s5-2.7,5.9-1s1.5,3.1-2.2,6.7c-3.7,3.6-17,16-21.5,19.2
		c7.3-0.7,13.2-2.8,14.7-2.1c1.5,0.7,2.2,2.4,0.4,6s-5.5,13.1-2.5,18.6c2.4,3.9,7.9,0.9,8.4,0c-5.3,9.6-12.4,6.8-14.5,4.7
		c-2.1-2.2-2.8-7-1.3-10.9c1.5-3.9,5.4-11.9,3.9-12.4s-2.7-0.7-9.2,0.2c-6.4,0.9-5.1,1.1-5.1,2.2c-0.1,1.1,2.7,20.2-3.4,28.7
		s-11.9,14.4-20.2,14.4s-12.4-5.2-12.4-10.8s8.1-10.9,14.1-8.6c-6.8,2.6-7.7,7.5-5.1,9.2c2.6,1.6,8.8,2.7,14.1-1.8
		c5.3-4.5,12.6-12.4,8.7-29.3c-10.3,8.3-13.6,9.8-15.7,7.3c-2.2-2.5,2.9-8.3,15.7-12.7c-0.4-14.3,2.4-26.4,4.8-32.3
		c2.4-5.9,8.2-6.2,9.1-3.5c0.9,2.6-1.9,8.4-4.8,16.5C145.9,26.6,144.7,31.7,144,34.2z"/>
	<path class="st0" d="M221.1,34.2c-2.4-1.8-3.9-3.8-3.9-4.4c-0.1-0.6,0.5-2.7,0-4.9s-2.9-0.8-3.9,1.1c-1,1.9-4.7,6.1-6.8,8.1
		s-5.4,3.3-6.6,0.3c-1.2-3,7.5-11.8,9.7-14s4.3-6,1.7-6c-3.5,0-6.1,5.8-9,10c-2.9,4.3-9.1,11.6-10.6,13.2c-1.5,1.5-6.7,2-5-2.4
		c1.8-4.4,5.4-3.3,6.9-3.3c1.5-0.1,2.9-2.7-0.8-2.7c-3.5,0-8.4,3.6-9.4,4.9c-1,1.3-1.8,2.4-3.4,2.5c-1.6,0.1,0.1-3.2,1.4-5.6
		c1.3-2.4-1.1-2.3-2.4-2c-1.3,0.3-4.7,5.1-6.4,7.1c-1.8,2.1-8,5.6-8,5.6c3.9,2.7,11-5,11-5s-2.2,4.6,0.2,4.6c2.4,0,2.8-0.5,5.9-2.7
		c-0.1,1.3,1.6,4.7,5.9,4.7s7.8-4.7,7.8-4.7s0.5,2.1,4.9,2.1s4.8-1.9,6.2-2.1c1.4-0.2,1,2.4,4.9,4.5c3.9,2.1,8.2,0.6,10.5-1.4
		C224.3,39.7,223.5,35.9,221.1,34.2z M217.8,40.5c-1.8,0.6-6,0-7.9-2.1s-0.1-3.4,1.1-4.7c1.2-1.4,3.3-3.9,3.3-3.9s0.7,3.3,3.2,4.7
		C220,35.8,219.7,39.9,217.8,40.5z"/>
	<ellipse transform="matrix(0.4202 -0.9074 0.9074 0.4202 88.0704 178.6304)" class="st0" cx="183.8" cy="20.4" rx="5.1" ry="4.1"/>
	<g>
		<path class="st0" d="M221.5,20.4c0.6,0,1.2,0.1,1.7,0.4c0.6,0.3,1,0.7,1.3,1.3c0.3,0.6,0.5,1.1,0.5,1.7c0,0.6-0.2,1.2-0.5,1.7
			c-0.3,0.6-0.7,1-1.3,1.3s-1.1,0.5-1.7,0.5c-0.6,0-1.2-0.2-1.7-0.5s-1-0.7-1.3-1.3c-0.3-0.6-0.5-1.1-0.5-1.7c0-0.6,0.2-1.2,0.5-1.7
			c0.3-0.6,0.7-1,1.3-1.3C220.4,20.5,220.9,20.4,221.5,20.4z M221.5,21c-0.5,0-1,0.1-1.4,0.4c-0.5,0.3-0.8,0.6-1.1,1.1
			c-0.3,0.5-0.4,1-0.4,1.5c0,0.5,0.1,1,0.4,1.4s0.6,0.8,1.1,1.1c0.5,0.3,0.9,0.4,1.4,0.4s1-0.1,1.4-0.4c0.5-0.3,0.8-0.6,1.1-1.1
			s0.4-0.9,0.4-1.4c0-0.5-0.1-1-0.4-1.5c-0.3-0.5-0.6-0.8-1.1-1.1C222.5,21.1,222,21,221.5,21z M220,25.8v-3.7h1.3
			c0.4,0,0.8,0,1,0.1s0.4,0.2,0.5,0.4c0.1,0.2,0.2,0.4,0.2,0.5c0,0.3-0.1,0.5-0.3,0.7c-0.2,0.2-0.5,0.3-0.8,0.3
			c0.1,0.1,0.2,0.1,0.3,0.2c0.2,0.1,0.3,0.4,0.6,0.7l0.5,0.7h-0.7l-0.3-0.6c-0.3-0.5-0.5-0.8-0.6-0.9c-0.1-0.1-0.3-0.1-0.5-0.1h-0.4
			v1.6H220z M220.6,23.7h0.7c0.4,0,0.6-0.1,0.7-0.2c0.1-0.1,0.2-0.2,0.2-0.4c0-0.1,0-0.2-0.1-0.3c-0.1-0.1-0.1-0.2-0.3-0.2
			s-0.3-0.1-0.6-0.1h-0.7V23.7z"/>
	</g>
</g>
</svg>
