<?xml version="1.0" encoding="utf-8"?>
<!-- Generator: Adobe Illustrator 20.1.0, SVG Export Plug-In . SVG Version: 6.00 Build 0)  -->
<svg version="1.1" id="Layer_1" xmlns="http://www.w3.org/2000/svg" xmlns:xlink="http://www.w3.org/1999/xlink" x="0px" y="0px"
	 viewBox="0 0 551.1 257.7" style="enable-background:new 0 0 551.1 257.7;" xml:space="preserve">
<style type="text/css">
	.st0{fill:#6D6E70;}
	.st1{fill-rule:evenodd;clip-rule:evenodd;fill:url(#SVGID_1_);}
	.st2{fill-rule:evenodd;clip-rule:evenodd;fill:url(#SVGID_2_);}
	.st3{fill-rule:evenodd;clip-rule:evenodd;fill:url(#SVGID_3_);}
	.st4{fill-rule:evenodd;clip-rule:evenodd;fill:url(#SVGID_4_);}
	.st5{fill-rule:evenodd;clip-rule:evenodd;fill:url(#SVGID_5_);}
	.st6{fill-rule:evenodd;clip-rule:evenodd;fill:#C4D600;}
	.st7{fill-rule:evenodd;clip-rule:evenodd;fill:url(#SVGID_6_);}
	.st8{fill-rule:evenodd;clip-rule:evenodd;fill:url(#SVGID_7_);}
	.st9{fill:#474747;}
</style>
<g>
	<path class="st0" d="M432,136.8c-45.8-3.2-94-4.9-143.8-4.9c-66.2,0-129.6,3-188.2,8.6c55.2-11.9,119.5-18.6,188.2-18.6
		c68.7,0,133,6.8,188.2,18.6c-12.7-1.2-25.6-2.3-38.7-3.2L432,136.8z"/>
	<linearGradient id="SVGID_1_" gradientUnits="userSpaceOnUse" x1="137.9955" y1="39.917" x2="150.126" y2="39.917">
		<stop  offset="0.3006" style="stop-color:#58595B"/>
		<stop  offset="1" style="stop-color:#808184"/>
	</linearGradient>
	<path class="st1" d="M138,54.2c0,0,4.9-25.4,3.3-28.6c-0.1-0.2,7.7,18.5,8.8,20.4C147.6,48.4,141.4,52.8,138,54.2L138,54.2z"/>
	<linearGradient id="SVGID_2_" gradientUnits="userSpaceOnUse" x1="203.0452" y1="91.1612" x2="244.5709" y2="100.7482">
		<stop  offset="0.2025" style="stop-color:#231F20"/>
		<stop  offset="0.3516" style="stop-color:#393637"/>
		<stop  offset="0.7305" style="stop-color:#6C6C6F"/>
		<stop  offset="0.9141" style="stop-color:#808184"/>
	</linearGradient>
	<path class="st2" d="M217.3,103.4c-7.5-4-11.3-10-12.3-20.8c13.7,4,27.3,8.1,40.9,12.1C236.8,97.9,226.5,100.3,217.3,103.4
		L217.3,103.4z"/>
	<linearGradient id="SVGID_3_" gradientUnits="userSpaceOnUse" x1="172.3088" y1="85.5699" x2="225.3163" y2="24.5918">
		<stop  offset="0" style="stop-color:#B9BBBD"/>
		<stop  offset="0.9548" style="stop-color:#5D5E60"/>
		<stop  offset="1" style="stop-color:#58595B"/>
	</linearGradient>
	<path class="st3" d="M138,54.2c19.2,25.6,43.8,40.2,72.3,47.2c18.8-15,34.9-30,49-45c-3.3-1.5-6.6-3-9.9-4.6
		c-22.9-11-44.9-24-65.9-38.7C168.7,31.1,153.6,44.9,138,54.2L138,54.2z"/>
	<linearGradient id="SVGID_4_" gradientUnits="userSpaceOnUse" x1="217.4045" y1="88.471" x2="351.3305" y2="88.471">
		<stop  offset="0" style="stop-color:#B9BBBD"/>
		<stop  offset="0.9548" style="stop-color:#5D5E60"/>
		<stop  offset="1" style="stop-color:#58595B"/>
	</linearGradient>
	<path class="st4" d="M217.6,103.3c21.4-10.9,39.8-24.8,55.9-40.7c27,6.7,53,9.7,77.8,9.2c-39.9,39-84.5,55.1-133.9,31.7
		L217.6,103.3L217.6,103.3z"/>
	<linearGradient id="SVGID_5_" gradientUnits="userSpaceOnUse" x1="438.9232" y1="75.6156" x2="451.8672" y2="74.0262">
		<stop  offset="0" style="stop-color:#EEEFAB"/>
		<stop  offset="2.862322e-02" style="stop-color:#EDEEA5"/>
		<stop  offset="0.3745" style="stop-color:#DBE45F"/>
		<stop  offset="0.663" style="stop-color:#CFDC2B"/>
		<stop  offset="0.8798" style="stop-color:#C7D70C"/>
		<stop  offset="1" style="stop-color:#C4D600"/>
	</linearGradient>
	<path class="st5" d="M450.2,60.1c0,0-3.2,20.7-3.3,28.6c0,0.2-7.7-18.5-8.8-20.4C440.5,66,446.8,61.5,450.2,60.1L450.2,60.1z"/>
	<path class="st6" d="M370.8,10.9c7.5,4,11.3,10,12.3,20.8c-13.6-4-27.3-8.1-40.9-12.1C351.4,16.5,361.6,14.1,370.8,10.9L370.8,10.9
		z"/>
	<linearGradient id="SVGID_6_" gradientUnits="userSpaceOnUse" x1="349.0683" y1="86.6578" x2="429.3535" y2="30.4415">
		<stop  offset="0" style="stop-color:#F1F1B8"/>
		<stop  offset="0.1594" style="stop-color:#ECEEA0"/>
		<stop  offset="0.4951" style="stop-color:#DDE564"/>
		<stop  offset="0.9762" style="stop-color:#C5D605"/>
		<stop  offset="1" style="stop-color:#C4D600"/>
	</linearGradient>
	<path class="st7" d="M450.2,60.2C431,34.6,406.3,20,377.9,12.9c-18.8,15-34.9,30-49,45c3.3,1.5,6.6,3,9.9,4.6
		c22.9,11,44.9,24,65.9,38.7C419.4,83.3,434.6,69.4,450.2,60.2L450.2,60.2z"/>
	<linearGradient id="SVGID_7_" gradientUnits="userSpaceOnUse" x1="297.6633" y1="55.5349" x2="310.5796" y2="-5.2316">
		<stop  offset="0" style="stop-color:#F3F3BF"/>
		<stop  offset="0.1119" style="stop-color:#F1F2B9"/>
		<stop  offset="0.2623" style="stop-color:#EDEFA7"/>
		<stop  offset="0.4346" style="stop-color:#E6EB8B"/>
		<stop  offset="0.6232" style="stop-color:#DDE564"/>
		<stop  offset="0.8227" style="stop-color:#D0DD32"/>
		<stop  offset="1" style="stop-color:#C4D600"/>
	</linearGradient>
	<path class="st8" d="M370.5,11.1c-21.4,10.9-39.8,24.8-55.9,40.7c-27-6.7-53-9.7-77.8-9.2c39.9-39,84.5-55.2,133.9-31.7L370.5,11.1
		L370.5,11.1z"/>
	<g>
		<path class="st9" d="M8.5,209.3c3.5,6.9,11.2,10.6,18.8,10.6c7.3,0,14.8-4.5,14.8-11.9c0-17.8-38.4-5.3-38.4-30
			c0-12.6,11.5-18.6,22.1-18.6c10.5,0,18.6,3.9,22.8,12.2l-7.6,4.5c-3.2-5.9-7.7-9.1-15.3-9.1c-6,0-13.7,3.6-13.7,10.4
			c0,17.5,38.4,3.9,38.4,30.1c0,13.3-11.1,20-23.4,20c-11.1,0-21-4.2-26-13.2L8.5,209.3z"/>
		<path class="st9" d="M59.2,161.1h8.4v11.3h0.3c5.2-9,16.2-13,25.9-13c19.9,0,34,14.3,34,34c0,19.7-14.1,34-34,34
			c-9.7,0-20.7-4.1-25.9-13h-0.3v43.3h-8.4V161.1z M93.8,219.9c15.8,0,25.6-11.9,25.6-26.5c0-14.6-9.8-26.5-25.6-26.5
			c-15.3,0-27,11.9-27,26.5C66.8,208,78.5,219.9,93.8,219.9z"/>
		<path class="st9" d="M196.7,213.6c-6.6,9.8-16.5,13.9-28,13.9c-19.7,0-32.8-14.1-32.8-34.2c0-19.3,13.4-33.9,32.3-33.9
			c19.9,0,30.4,15.3,30.4,30.2v5.9h-54.3c0,7,4.9,24.4,24.5,24.4c8.5,0,17.5-4.5,21.7-11.5L196.7,213.6z M190.2,188
			c0-11.5-9.9-21-22.4-21c-18.3,0-23.5,17.6-23.5,21H190.2z"/>
		<path class="st9" d="M210.4,179.3c0-4.8-0.7-14.8-0.7-18.2h8.4c0.1,4.8,0.3,10.1,0.6,11.3c4.2-7.6,10.9-13,20.6-13
			c1.7,0,3.2,0.3,4.9,0.7l-1,8.3c-1.3-0.4-2.4-0.6-3.2-0.6c-14.6,0-21.1,10.1-21.1,22.7v35.3h-8.4V179.3z"/>
		<path class="st9" d="M277.9,159.4c19.9,0,34,14.3,34,34c0,19.7-14.1,34-34,34c-19.9,0-34-14.3-34-34
			C243.9,173.7,258,159.4,277.9,159.4z M277.9,219.9c15.8,0,25.6-11.9,25.6-26.5c0-14.6-9.8-26.5-25.6-26.5
			c-15.8,0-25.6,11.9-25.6,26.5C252.3,208,262.1,219.9,277.9,219.9z"/>
		<path class="st9" d="M355.4,168.7h-18.5v42.1c0,5.7,3.4,9.1,9,9.1c3.2,0,6.6-1,9.5-2.2l0.7,7.6c-3.1,1.1-7.7,2.2-10.9,2.2
			c-12,0-16.7-7.4-16.7-16.7v-42.1h-14v-7.6h14v-18.6h8.4v18.6h18.5V168.7z"/>
		<path class="st9" d="M420.5,213.6c-6.6,9.8-16.5,13.9-28,13.9c-19.7,0-32.8-14.1-32.8-34.2c0-19.3,13.4-33.9,32.3-33.9
			c19.9,0,30.4,15.3,30.4,30.2v5.9h-54.3c0,7,4.9,24.4,24.5,24.4c8.5,0,17.5-4.5,21.7-11.5L420.5,213.6z M414,188
			c0-11.5-9.9-21-22.4-21c-18.3,0-23.5,17.6-23.5,21H414z"/>
		<path class="st9" d="M488.4,216.3c-6.3,7.6-14.6,11.2-23.8,11.2c-19.9,0-34-14.3-34-34c0-19.7,14.1-34,34-34
			c9.4,0,17.8,4.1,24.1,11.2l-6.7,5c-4.9-5.3-10.6-8.7-17.4-8.7c-15.8,0-25.6,11.9-25.6,26.5c0,14.6,9.8,26.5,25.6,26.5
			c7,0,13-3.6,17.4-9L488.4,216.3z"/>
		<path class="st9" d="M494.5,142.5h8.4v48l31.9-29.3h12.3l-33.3,29.5l37.2,35h-12.7l-35.4-34.2v34.2h-8.4V142.5z"/>
	</g>
</g>
</svg>
