<?xml version="1.0" encoding="utf-8"?>
<!-- Generator: Adobe Illustrator 20.1.0, SVG Export Plug-In . SVG Version: 6.00 Build 0)  -->
<svg version="1.1" id="Layer_1" xmlns="http://www.w3.org/2000/svg" xmlns:xlink="http://www.w3.org/1999/xlink" x="0px" y="0px"
	 viewBox="0 0 52 52" style="enable-background:new 0 0 52 52;" xml:space="preserve">
<style type="text/css">
	.st0{fill:#738290;}
</style>
<g>
	<path class="st0" d="M26,0.5C11.9,0.5,0.5,11.9,0.5,26S11.9,51.5,26,51.5S51.5,40.1,51.5,26S40.1,0.5,26,0.5z M26,50.5
		c-13.5,0-24.5-11-24.5-24.5c0-13.5,11-24.5,24.5-24.5c13.5,0,24.5,11,24.5,24.5C50.5,39.5,39.5,50.5,26,50.5z"/>
	<polygon class="st0" points="29.3,13.1 16.5,26 29.3,38.9 30,38.1 17.9,26 30,13.9 	"/>
</g>
</svg>
