<?xml version="1.0" encoding="utf-8"?>
<!-- Generator: Adobe Illustrator 20.1.0, SVG Export Plug-In . SVG Version: 6.00 Build 0)  -->
<svg version="1.1" id="Layer_1" xmlns="http://www.w3.org/2000/svg" xmlns:xlink="http://www.w3.org/1999/xlink" x="0px" y="0px"
	 viewBox="0 0 52 52" style="enable-background:new 0 0 52 52;" xml:space="preserve">
<style type="text/css">
	.st0{fill:#738290;}
</style>
<g>
	<path class="st0" d="M26,51.5c14.1,0,25.5-11.4,25.5-25.5S40.1,0.5,26,0.5S0.5,11.9,0.5,26S11.9,51.5,26,51.5z M26,1.5
		c13.5,0,24.5,11,24.5,24.5c0,13.5-11,24.5-24.5,24.5c-13.5,0-24.5-11-24.5-24.5C1.5,12.5,12.5,1.5,26,1.5z"/>
	<polygon class="st0" points="22.7,38.9 35.5,26 22.7,13.1 22,13.9 34.1,26 22,38.1 	"/>
</g>
</svg>
