<?xml version="1.0" encoding="utf-8"?>
<!-- Generator: Adobe Illustrator 20.1.0, SVG Export Plug-In . SVG Version: 6.00 Build 0)  -->
<svg version="1.1" id="Layer_1" xmlns="http://www.w3.org/2000/svg" xmlns:xlink="http://www.w3.org/1999/xlink" x="0px" y="0px"
	 viewBox="0 0 32 32" style="enable-background:new 0 0 32 32;" xml:space="preserve">
<style type="text/css">
	.st0{fill:#A0C8EB;}
</style>
<path class="st0" d="M11.7,25.4L10.1,27c-1.4,1.4-3.7,1.4-5.1,0c-0.7-0.7-1-1.6-1-2.5s0.4-1.8,1-2.5l6-5.9c1.2-1.2,3.6-3,5.3-1.3
	c0.8,0.8,2,0.8,2.8,0c0.8-0.8,0.8-2,0-2.8c-2.9-2.9-7.1-2.3-10.8,1.3l-6,5.9C0.8,20.6,0,22.5,0,24.5c0,2,0.8,3.9,2.2,5.3
	C3.7,31.3,5.6,32,7.6,32c1.9,0,3.9-0.7,5.3-2.2l1.6-1.6c0.8-0.8,0.8-2,0-2.8C13.8,24.6,12.5,24.6,11.7,25.4z"/>
<path class="st0" d="M29.8,2.4C26.7-0.7,22.4-0.8,19.5,2l-2,2c-0.8,0.8-0.8,2,0,2.8c0.8,0.8,2,0.8,2.8,0l2-2C23.8,3.4,25.7,4,27,5.2
	c0.7,0.7,1,1.6,1,2.5c0,0.9-0.4,1.8-1,2.5l-6.4,6.3c-2.9,2.9-4.3,1.5-4.9,1c-0.8-0.8-2-0.8-2.8,0c-0.8,0.8-0.8,2,0,2.8
	c1.3,1.3,2.9,2,4.5,2c2,0,4-1,6-2.9l6.4-6.3c1.4-1.4,2.2-3.3,2.2-5.3C32,5.7,31.2,3.8,29.8,2.4z"/>
</svg>
