<?xml version="1.0" encoding="utf-8"?>
<!-- Generator: Adobe Illustrator 20.1.0, SVG Export Plug-In . SVG Version: 6.00 Build 0)  -->
<svg version="1.1" id="Layer_1" xmlns="http://www.w3.org/2000/svg" xmlns:xlink="http://www.w3.org/1999/xlink" x="0px" y="0px"
	 viewBox="0 0 227.3 259" style="enable-background:new 0 0 227.3 259;" xml:space="preserve">
<style type="text/css">
	.st0{fill:#4A9FD9;}
</style>
<g>
	<path class="st0" d="M130.2,48.3H18.8c-3.3,0-6,2.7-6,6v146c0,3.3,2.7,6,6,6h111.3c3.3,0,6-2.7,6-6v-15.5v-66.4V82.7V69.2V54.3
		C136.2,51,133.5,48.3,130.2,48.3z M128.2,78.7H87.7c-2.2,0-4,1.8-4,4v35.8c0,2.2,1.8,4,4,4h40.5V141H87.7c-2.2,0-4,1.8-4,4
		s1.8,4,4,4h40.5v9.4H87.7c-2.2,0-4,1.8-4,4s1.8,4,4,4h40.5v14.4H65.1V73.2h63.1V78.7z M128.2,114.4h-6.1V98.7c0-3.3-2.7-6-6-6h-3.3
		v-6h15.3V114.4z M91.7,114.4V86.7h13.2v8c0,3.3,2.7,6,6,6h3.3v13.8H91.7z M20.8,198.3v-142h107.3v8.8H61.1c-2.2,0-4,1.8-4,4v115.6
		c0,2.2,1.8,4,4,4h67.1v9.5H20.8z"/>
	<path class="st0" d="M43.7,38.3h32.7c2.2,0,4-1.8,4-4s-1.8-4-4-4H43.7c-2.2,0-4,1.8-4,4S41.5,38.3,43.7,38.3z"/>
	<path class="st0" d="M87.7,38.3h12.7c2.2,0,4-1.8,4-4s-1.8-4-4-4H87.7c-2.2,0-4,1.8-4,4S85.5,38.3,87.7,38.3z"/>
	<path class="st0" d="M74.5,213.2c-8.5,0-15.5,7-15.5,15.5s7,15.5,15.5,15.5s15.5-7,15.5-15.5S83,213.2,74.5,213.2z M74.5,236.2
		c-4.1,0-7.5-3.4-7.5-7.5s3.4-7.5,7.5-7.5s7.5,3.4,7.5,7.5S78.6,236.2,74.5,236.2z"/>
	<path class="st0" d="M184.3,48c-2.2,0-4,1.8-4,4s1.8,4,4,4h9.5v8.7c0,2.2,1.8,4,4,4s4-1.8,4-4V56h9.5c2.2,0,4-1.8,4-4V34.3
		c0-2.2-1.8-4-4-4h-23v-9.7h23c2.2,0,4-1.8,4-4s-1.8-4-4-4h-9.5V4c0-2.2-1.8-4-4-4s-4,1.8-4,4v8.7h-9.5c-2.2,0-4,1.8-4,4v17.7
		c0,2.2,1.8,4,4,4h23V48H184.3z"/>
	<path class="st0" d="M223.3,78.7H149V30.2c0-9.6-7.9-17.5-17.5-17.5h-114C7.9,12.7,0,20.5,0,30.2v211.3c0,9.6,7.9,17.5,17.5,17.5
		h114c9.6,0,17.5-7.9,17.5-17.5v-66.2h74.3c2.2,0,4-1.8,4-4V82.7C227.3,80.5,225.5,78.7,223.3,78.7z M141,241.5
		c0,5.2-4.3,9.5-9.5,9.5h-114c-5.2,0-9.5-4.3-9.5-9.5V30.2c0-5.2,4.3-9.5,9.5-9.5h114c5.2,0,9.5,4.3,9.5,9.5v52.5v88.6V241.5z
		 M219.3,167.3H149V86.7h70.3V167.3z"/>
	<path class="st0" d="M191.1,128.7c-2.2-1-4.6-1.5-7.1-1.5c-9.9,0-17.9,8-17.9,17.9s8,17.9,17.9,17.9c2.5,0,4.9-0.5,7.1-1.5
		c2.2,1,4.6,1.5,7.1,1.5c9.9,0,17.9-8,17.9-17.9s-8-17.9-17.9-17.9C195.7,127.2,193.3,127.7,191.1,128.7z M188.3,145
		c0-2.6,1.1-5,2.8-6.8c1.7,1.8,2.8,4.2,2.8,6.8s-1.1,5-2.8,6.8C189.4,150.1,188.3,147.7,188.3,145z M174.1,145
		c0-5.2,4.1-9.5,9.2-9.8c-1.9,2.8-3,6.2-3,9.8s1.1,7,3,9.8C178.2,154.5,174.1,150.3,174.1,145z M208.1,145c0,5.2-4.1,9.5-9.2,9.8
		c1.9-2.8,3-6.2,3-9.8s-1.1-7-3-9.8C204,135.5,208.1,139.8,208.1,145z"/>
	<path class="st0" d="M159.3,105.2h41.3c2.2,0,4-1.8,4-4s-1.8-4-4-4h-41.3c-2.2,0-4,1.8-4,4S157.1,105.2,159.3,105.2z"/>
</g>
</svg>
