<?xml version="1.0" encoding="utf-8"?>
<!-- Generator: Adobe Illustrator 20.1.0, SVG Export Plug-In . SVG Version: 6.00 Build 0)  -->
<svg version="1.1" id="Layer_1" xmlns="http://www.w3.org/2000/svg" xmlns:xlink="http://www.w3.org/1999/xlink" x="0px" y="0px"
	 viewBox="0 0 254.5 248" style="enable-background:new 0 0 254.5 248;" xml:space="preserve">
<style type="text/css">
	.st0{fill:#4A9FD9;}
</style>
<g>
	<path class="st0" d="M151.5,180.6c-2-0.9-4.4,0.1-5.2,2.1c-5.1,12.1-11.6,23.5-19.6,34c1.6-18.1,0.2-36.2-4.2-53.9l25.7-30.7
		l10.1-12.1c0.2,12-1,23.9-3.6,35.5c-0.5,2.2,0.9,4.3,3.1,4.8c2.2,0.5,4.3-0.9,4.8-3.1c3.3-15.2,4.4-30.8,3.4-46.3l11.1-13.3
		c0.1-0.1,0.2-0.3,0.3-0.4c0-0.1,0.1-0.1,0.1-0.2c0.1-0.2,11.5-20.3,21.3-41.3c18.4-40,15.4-49.7,10.6-53.7s-14.8-5.3-51,19.8
		c-19.1,13.2-36.8,28-37,28.1c-0.1,0-0.1,0.1-0.1,0.2c-0.1,0.1-0.3,0.2-0.4,0.4l-11.1,13.3C67.3,68.5,28.7,89,1.2,121.9
		c-1.6,2-1.8,4.7-0.4,6.8c1.1,1.6,2.9,2.5,4.7,2.5c0.6,0,1.2-0.1,1.8-0.3c17.8-5.7,36.1-8.2,54.7-7.4c-0.2,1.1-0.2,2.2-0.2,3.3
		c0.2,2.8,1.4,5.4,3.4,7.5l-11.3,13.5c-12.1,6.8-23.9,16.8-34.1,28.9C12.8,185,7,193.8,2.5,202.9c-0.8,1.6-0.7,3.6,0.3,5.1
		c1,1.4,2.6,2.3,4.3,2.3c0.1,0,0.2,0,0.3,0c10.8-0.7,22.2-3.1,33.4-7c-1.9,11.7-2.3,23.4-1.1,34.1c0.2,1.8,1.4,3.4,3.1,4.1
		c0.7,0.3,1.4,0.4,2.1,0.4c1.1,0,2.2-0.3,3.1-1c8.1-6,15.8-13.3,22.7-21.5c10.1-12.1,17.9-25.4,22.5-38.5l11.4-13.5
		c2,1.3,4.4,2.1,6.8,2.1c0.4,0,0.7,0,1.1,0c1.1-0.1,2.2-0.3,3.2-0.7c4,18.1,4.8,36.7,2.2,55.1c-0.3,2.5,1,5,3.3,6
		c0.7,0.3,1.5,0.5,2.3,0.5c1.6,0,3.2-0.7,4.4-2.1c10.7-12.8,19.4-27,25.8-42.2C154.5,183.8,153.6,181.5,151.5,180.6z M163.1,28.6
		c35.3-24.5,41.2-20.3,41.2-20.2c0.1,0,5.3,5-12.8,44.1c-7,15.1-14.8,29.7-18.6,36.6l-42.6-35.8C136.4,48.3,149.4,38.1,163.1,28.6z
		 M12.6,121.1C36.4,95.4,67.7,78.6,102.2,73l-35.9,42.8C48.1,114.6,30.1,116.4,12.6,121.1z M70.8,168.3l6.4,5.4
		C70,179.9,61.4,185.4,52,190c2.9-10.1,6.8-19.5,11.6-27.7L70.8,168.3z M25.9,181.9c9-10.8,19.4-19.7,30-26l1.5,1.2
		c-6.5,10.7-11.6,23.4-14.8,37c-10.2,4-20.6,6.7-30.6,7.8C15.9,195,20.5,188.3,25.9,181.9z M64.5,214.2
		c-5.4,6.4-11.2,12.1-17.3,17.1c-0.6-10,0.2-20.7,2.4-31.5c12.9-5.5,24.5-12.7,33.8-21l1.5,1.2C80.6,191.7,73.5,203.5,64.5,214.2z
		 M89.1,173.2l-5.9-4.9l-1.7-1.4L62,150.5l9.2-11l1.1,0.9l25.9,21.8L89.1,173.2z M111.7,161.3c-1.2,0.1-2.3-0.3-3.2-1l-37.2-31.2
		c-0.9-0.8-1.5-1.8-1.6-3c-0.1-1.2,0.3-2.3,1-3.2l36.7-43.8l13.7-16.3l0,0l3.3-3.9l22,18.4l22,18.4l-53.7,64
		C114,160.7,112.9,161.2,111.7,161.3z"/>
	<path class="st0" d="M155.1,49.5c0.4,4.2,2.4,8.1,5.6,10.8c2.9,2.4,6.5,3.7,10.2,3.7c0.5,0,0.9,0,1.4-0.1c4.2-0.4,8.1-2.4,10.8-5.6
		c5.6-6.7,4.8-16.8-2-22.4c-6.7-5.6-16.8-4.8-22.4,2C156.1,41.1,154.8,45.2,155.1,49.5z M164.9,43c1.6-1.9,3.8-2.8,6.1-2.8
		c1.8,0,3.6,0.6,5.1,1.8c3.3,2.8,3.8,7.8,1,11.2c-1.4,1.6-3.3,2.6-5.4,2.8c-2.1,0.2-4.2-0.5-5.8-1.8s-2.6-3.3-2.8-5.4
		C162.9,46.7,163.6,44.6,164.9,43z"/>
	<path class="st0" d="M150.7,95.1c-1.7-1.4-4.2-1.2-5.6,0.5l-38.2,45.5c-1.4,1.7-1.2,4.2,0.5,5.6c0.7,0.6,1.7,0.9,2.6,0.9
		c1.1,0,2.3-0.5,3.1-1.4l38.2-45.5C152.6,99,152.4,96.5,150.7,95.1z"/>
	<path class="st0" d="M220.6,80c-1.7-1.4-4.2-1.2-5.6,0.5c-1.4,1.7-1.2,4.2,0.5,5.6c36.8,30.9,41.6,85.9,10.8,122.7
		c-22.2,26.4-57.9,37.3-91,27.7c-2.1-0.6-4.3,0.6-5,2.7c-0.6,2.1,0.6,4.3,2.7,5c8.7,2.5,17.6,3.8,26.4,3.8c27.7,0,54.6-12.1,72.9-34
		C266,173.8,260.7,113.7,220.6,80z"/>
	<path class="st0" d="M109.5,224.3c-2.1-1.4-4.1-3-6-4.6c-5.4-4.5-10.2-9.7-14.4-15.3c-1.3-1.8-3.8-2.2-5.6-0.9
		c-1.8,1.3-2.2,3.8-0.9,5.6c4.5,6.2,9.8,11.8,15.7,16.7c2.1,1.8,4.3,3.5,6.6,5c0.7,0.5,1.5,0.7,2.3,0.7c1.3,0,2.5-0.6,3.3-1.7
		C111.8,228,111.3,225.5,109.5,224.3z"/>
	<path class="st0" d="M157.4,202.5c-2.2-0.1-4.1,1.6-4.2,3.8c-0.1,2.2,1.6,4.1,3.8,4.2c0.8,0,1.6,0,2.4,0c17.1,0,33.1-7.4,44.1-20.6
		c9.9-11.8,14.6-26.7,13.2-42c-1.3-15.3-8.6-29.2-20.4-39.1c-1.7-1.4-4.2-1.2-5.6,0.5c-1.4,1.7-1.2,4.2,0.5,5.6
		c10.1,8.5,16.4,20.5,17.5,33.7s-2.9,26.1-11.4,36.2C187.5,196.6,172.9,203.1,157.4,202.5z"/>
</g>
</svg>
