<?xml version="1.0" encoding="utf-8"?>
<!-- Generator: Adobe Illustrator 20.1.0, SVG Export Plug-In . SVG Version: 6.00 Build 0)  -->
<svg version="1.1" id="Layer_1" xmlns="http://www.w3.org/2000/svg" xmlns:xlink="http://www.w3.org/1999/xlink" x="0px" y="0px"
	 viewBox="0 0 221 255.2" style="enable-background:new 0 0 221 255.2;" xml:space="preserve">
<style type="text/css">
	.st0{fill:#4A9FD9;}
</style>
<g>
	<path class="st0" d="M217,94.2h-35.3c-2.2,0-4,1.8-4,4v25.5c0,2.2,1.8,4,4,4s4-1.8,4-4v-21.5H213v145h-27.3v-19.3c0-2.2-1.8-4-4-4
		s-4,1.8-4,4v23.3c0,2.2,1.8,4,4,4H217c2.2,0,4-1.8,4-4v-153C221,96,219.2,94.2,217,94.2z"/>
	<path class="st0" d="M38.5,172.2c-2.2,0-4,1.8-4,4v71H8v-142h4.5c2.2,0,4-1.8,4-4s-1.8-4-4-4H4c-2.2,0-4,1.8-4,4v150
		c0,2.2,1.8,4,4,4h34.5c2.2,0,4-1.8,4-4v-75C42.5,174,40.7,172.2,38.5,172.2z"/>
	<path class="st0" d="M99,186.7c-2.2,0-4,1.8-4,4v56.5H67.3v-68.8c0-2.2-1.8-4-4-4s-4,1.8-4,4v72.8c0,2.2,1.8,4,4,4H99
		c2.2,0,4-1.8,4-4v-60.5C103,188.5,101.2,186.7,99,186.7z"/>
	<path class="st0" d="M157.8,232.7c-2.2,0-4,1.8-4,4v10.5h-27v-16.5c0-2.2-1.8-4-4-4s-4,1.8-4,4v20.5c0,2.2,1.8,4,4,4h35
		c2.2,0,4-1.8,4-4v-14.5C161.8,234.5,160,232.7,157.8,232.7z"/>
	<path class="st0" d="M122.8,62.3c2.2,0,4-1.8,4-4v-5.5h27v61.8c0,2.2,1.8,4,4,4s4-1.8,4-4V48.8c0-2.2-1.8-4-4-4h-35
		c-2.2,0-4,1.8-4,4v9.5C118.8,60.5,120.5,62.3,122.8,62.3z"/>
	<path class="st0" d="M63.6,30.8c2.2,0,4-1.8,4-4V8h27v10.7c0,2.2,1.8,4,4,4s4-1.8,4-4V4c0-2.2-1.8-4-4-4h-35c-2.2,0-4,1.8-4,4v22.8
		C59.6,29,61.4,30.8,63.6,30.8z"/>
	<path class="st0" d="M128.4,199.4l-6.6,6.6c-1.6,1.6-1.6,4.1,0,5.7c0.8,0.8,1.8,1.2,2.8,1.2s2-0.4,2.8-1.2l6.6-6.6
		c5.3,4.3,11.8,7.1,19,7.9v9.3c0,2.2,1.8,4,4,4s4-1.8,4-4v-9.3c7.1-0.8,13.7-3.6,19-7.9l6.6,6.6c0.8,0.8,1.8,1.2,2.8,1.2
		c1,0,2-0.4,2.8-1.2c1.6-1.6,1.6-4.1,0-5.7l-6.6-6.6c4.3-5.3,7.1-11.8,7.9-19h9.3c2.2,0,4-1.8,4-4s-1.8-4-4-4h-9.3
		c-0.8-7.1-3.6-13.7-7.9-19l6.6-6.6c1.6-1.6,1.6-4.1,0-5.7c-1.6-1.6-4.1-1.6-5.7,0l-6.6,6.6c-5.3-4.3-11.8-7.1-19-7.9v-9.3
		c0-2.2-1.8-4-4-4s-4,1.8-4,4v9.3c-7.1,0.8-13.7,3.6-19,7.9l-6.6-6.6c-1.6-1.6-4.1-1.6-5.7,0c-1.6,1.6-1.6,4.1,0,5.7l6.6,6.6
		c-4.3,5.3-7.1,11.8-7.9,19h-9.3c-2.2,0-4,1.8-4,4s1.8,4,4,4h9.3C121.2,187.6,124.1,194.1,128.4,199.4z M157,205.2
		c-15.9,0-28.7-12.9-28.7-28.7c0,0,0,0,0,0s0,0,0,0c0-15.8,12.9-28.7,28.7-28.7c0,0,0,0,0,0s0,0,0,0c15.8,0,28.7,12.9,28.7,28.7
		C185.8,192.3,172.9,205.2,157,205.2z"/>
	<path class="st0" d="M99,143c8.6-4.4,15.8-11.3,20.4-19.8l12.9,5.2c0.5,0.2,1,0.3,1.5,0.3c1.6,0,3.1-0.9,3.7-2.5
		c0.8-2-0.1-4.4-2.2-5.2l-12.6-5.2c1.7-4.9,2.6-10.2,2.6-15.7c0-4.7-0.7-9.2-2-13.5l11.7-4.9c2-0.9,3-3.2,2.1-5.2
		c-0.9-2-3.2-3-5.2-2.1l-11.5,4.8c-4.5-9.2-11.8-16.8-20.9-21.5l4.5-11c0.8-2-0.1-4.4-2.2-5.2s-4.4,0.1-5.2,2.2l-4.4,10.9
		c-4.7-1.5-9.7-2.4-14.9-2.4c-5.4,0-10.6,0.9-15.4,2.6l-4.6-10.8c-0.9-2-3.2-3-5.2-2.1c-2,0.9-3,3.2-2.1,5.2l4.6,10.9
		c-9,4.9-16.2,12.5-20.6,21.7l-11.6-4.7c-2-0.8-4.4,0.1-5.2,2.2c-0.8,2,0.1,4.4,2.2,5.2l11.8,4.8c-1.2,4.1-1.8,8.5-1.8,13
		c0,5.7,1,11.1,2.8,16.2l-12.6,5.3c-2,0.9-3,3.2-2.1,5.2c0.6,1.5,2.1,2.4,3.7,2.4c0.5,0,1-0.1,1.5-0.3l12.8-5.4
		c4.7,8.4,11.9,15.3,20.6,19.6l-5.5,13.5c-0.8,2,0.1,4.4,2.2,5.2c0.5,0.2,1,0.3,1.5,0.3c1.6,0,3.1-0.9,3.7-2.5l5.5-13.5
		c4.4,1.3,9,2,13.8,2c5,0,9.8-0.8,14.3-2.2l5.7,13.5c0.6,1.5,2.1,2.4,3.7,2.4c0.5,0,1-0.1,1.5-0.3c2-0.9,3-3.2,2.1-5.2L99,143z
		 M37.3,100.2c0-22.1,17.9-40,40-40s40,17.9,40,40s-17.9,40-40,40S37.3,122.2,37.3,100.2z"/>
	<path class="st0" d="M77.3,74.7c-14.1,0-25.5,11.4-25.5,25.5s11.4,25.5,25.5,25.5s25.5-11.4,25.5-25.5S91.3,74.7,77.3,74.7z
		 M77.3,117.7c-9.6,0-17.5-7.9-17.5-17.5s7.9-17.5,17.5-17.5s17.5,7.9,17.5,17.5S86.9,117.7,77.3,117.7z"/>
</g>
</svg>
