<?xml version="1.0" encoding="utf-8"?>
<!-- Generator: Adobe Illustrator 20.1.0, SVG Export Plug-In . SVG Version: 6.00 Build 0)  -->
<svg version="1.1" id="Layer_1" xmlns="http://www.w3.org/2000/svg" xmlns:xlink="http://www.w3.org/1999/xlink" x="0px" y="0px"
	 viewBox="0 0 102 102" style="enable-background:new 0 0 102 102;" xml:space="preserve">
<style type="text/css">
	.st0{fill:#A1C9EC;}
	.st1{fill:#4B9FD9;}
	.st2{fill:#40596B;}
	.st3{fill:#F2F2F2;}
	.st4{fill:#CDD6E0;}
</style>
<g>
	<path class="st0" d="M101,96.9c0,1.3-0.4,2.3-1.3,3.1c-0.8,0.6-1.7,1-2.9,1H5.2c-1,0-2.1-0.4-2.9-1C1.4,99.2,1,98.1,1,96.9v-61h100
		V96.9z"/>
	<path class="st1" d="M99.8,100c-0.8,0.6-1.7,1-2.9,1H5.2c-1,0-2.1-0.4-2.9-1L51,58.1L99.8,100z"/>
	<path class="st2" d="M101,35.8L86.8,46.1L53.7,69.8c-1.7,1.2-4,1.2-5.6,0L15.2,46.1L1,35.8l14.2-10.2L46,3.6l2.3-1.7
		c1.7-1.3,4-1.3,5.6,0l2.3,1.7L71,14.2l7.3,5.2l8.5,6.3L101,35.8z"/>
	<path class="st3" d="M86.8,16.5v29.6L53.7,69.8c-1.7,1.2-4,1.2-5.6,0L15.2,46.1V7.7c0-2.3,1.9-4.2,4.2-4.2h54.4L86.8,16.5z"/>
	<path class="st4" d="M73.9,13.1c0,1.9,1.5,3.3,3.3,3.3h9.6L73.9,3.6V13.1L73.9,13.1z"/>
</g>
</svg>
