<?xml version="1.0" encoding="utf-8"?>
<!-- Generator: Adobe Illustrator 20.1.0, SVG Export Plug-In . SVG Version: 6.00 Build 0)  -->
<svg version="1.1" id="Layer_1" xmlns="http://www.w3.org/2000/svg" xmlns:xlink="http://www.w3.org/1999/xlink" x="0px" y="0px"
	 viewBox="0 0 128 27" style="enable-background:new 0 0 128 27;" xml:space="preserve">
<style type="text/css">
	.st0{fill:#4B9FD9;}
	.st1{fill:#A1C9EC;}
	.st2{fill:#303036;}
</style>
<g>
	<path class="st0" d="M11.5,21c-3.3-0.9-5.8-3.9-5.8-7.5S8.2,6.9,11.5,6V1C5.4,2,0.8,7.2,0.8,13.5S5.4,25,11.5,26V21z"/>
	<path class="st1" d="M15.5,1v5c3.3,0.9,5.8,3.9,5.8,7.5s-2.5,6.6-5.8,7.5v5c6-1,10.7-6.2,10.7-12.5S21.5,2,15.5,1z"/>
	<g>
		<g>
			<path class="st2" d="M43.4,6.5c-3.9,0-7.1,3.2-7.1,7.1c0,3.9,3.2,7.1,7.1,7.1c3.9,0,7.1-3.2,7.1-7.1C50.5,9.7,47.3,6.5,43.4,6.5z
				 M43.4,18.5c-2.4,0-4.4-2.2-4.4-4.9c0-2.7,2-4.9,4.4-4.9c2.4,0,4.4,2.2,4.4,4.9C47.8,16.3,45.8,18.5,43.4,18.5z"/>
			<path class="st2" d="M115.4,6.5c-3.9,0-7.1,3.2-7.1,7.1c0,3.9,3.2,7.1,7.1,7.1c3.9,0,7.1-3.2,7.1-7.1
				C122.5,9.7,119.3,6.5,115.4,6.5z M115.4,18.5c-2.4,0-4.4-2.2-4.4-4.9c0-2.7,2-4.9,4.4-4.9c2.4,0,4.4,2.2,4.4,4.9
				C119.8,16.3,117.8,18.5,115.4,18.5z"/>
			<path class="st2" d="M68.6,13.6c0,0.2,0,0.4,0,0.6h0C68.6,14,68.6,13.8,68.6,13.6z"/>
			<path class="st2" d="M68.7,12.5L68.7,12.5c-0.1,0.4-0.1,0.7-0.1,1.1C68.6,13.2,68.6,12.9,68.7,12.5z"/>
			<path class="st2" d="M71.4,12.5"/>
			<path class="st2" d="M81.3,14.2h1.4c0-0.2,0-0.4,0-0.6c0-0.4,0-0.7-0.1-1.1c-0.5-3.3-3.3-5.9-6.8-6c-0.1,0-0.1,0-0.2,0
				c-3.5,0-6.4,2.6-6.9,6h0c-0.1,0.4-0.1,0.7-0.1,1.1c0,0.2,0,0.4,0,0.6h0c0.3,3.6,3.3,6.5,7,6.5c0.1,0,0.1,0,0.2,0
				c0.1,0,0.1,0,0.2,0c2.5,0,4.7-1.2,6.1-3.1l-0.4-0.3l-1.2-1c-0.9,1.3-2.4,2.1-4.1,2.1c-0.1,0-0.2,0-0.3,0c-2.4-0.1-4.4-2-4.7-4.3
				h8.8H81.3z M71.4,12.5c0.5-2.1,2.3-3.7,4.6-3.8c2,0.1,3.6,1.7,4,3.8H71.4z"/>
			<path class="st2" d="M105.6,18.5v-8c0-2.9-2.2-3.8-3.7-3.8c-1.6,0-3.2,0.8-5.1,2.3c-1.1-2-2.2-2.3-3.6-2.3
				c-2.1,0-3.9,1.4-4.7,2.2V8.8V7h-2.3h-2.4v1.7h2.4v9.8h-2.5v1.7h7v-1.7h-2.2v-7.6c1.8-1.6,3.1-2.2,4.5-2.2c0.9,0,1.5,1,1.8,1.8v8
				h-1.8v1.7h6.3v-1.7H97V11c1.2-1.1,3-2.2,4.3-2.2c1.5,0,1.9,1.8,1.9,1.8v8h-1.9v1.7h6.6v-1.7H105.6z"/>
			<path class="st2" d="M65.7,18.4c-1.1,0-1.2-1.1-1.2-2.3V8.8h2.9V7h-2.9V2.2L62,2.8V7h-2v1.7h2v7.9c0,2.6,1.3,3.5,3,3.5
				c1.7,0,2.8,0,2.8,0v-1.7C67.7,18.4,66.8,18.4,65.7,18.4z"/>
			<path class="st2" d="M56.7,18.4c-1.1,0-1.2-1.1-1.2-2.3V8.8h2.9V7h-2.9V2.2L53,2.8V7h-2v1.7h2v7.9c0,2.6,1.3,3.5,3,3.5
				c1.7,0,2.8,0,2.8,0v-1.7C58.7,18.4,57.8,18.4,56.7,18.4z"/>
			<g>
				<path class="st2" d="M124,5.9h-1v2.5h-0.4V5.9h-1V5.6h2.3V5.9z"/>
				<path class="st2" d="M124.8,5.6l0.9,2.4l0.9-2.4h0.5v2.9h-0.4V6l-0.9,2.4h-0.3L124.7,6v2.4h-0.4V5.6H124.8z"/>
			</g>
		</g>
	</g>
</g>
</svg>
