<?xml version="1.0" encoding="utf-8"?>
<!-- Generator: Adobe Illustrator 20.1.0, SVG Export Plug-In . SVG Version: 6.00 Build 0)  -->
<svg version="1.1" id="Layer_1" xmlns="http://www.w3.org/2000/svg" xmlns:xlink="http://www.w3.org/1999/xlink" x="0px" y="0px"
	 viewBox="0 0 530 530" style="enable-background:new 0 0 530 530;" xml:space="preserve">
<style type="text/css">
	.st0{fill:none;stroke:#303036;stroke-width:18;stroke-miterlimit:10;}
	.st1{fill:#4A9FD9;}
	.st2{fill:#FFFFFF;}
	.st3{fill:#A0C8EB;}
</style>
<g>
	<g>
		<circle class="st0" cx="405.3" cy="66.8" r="47.5"/>
		<line class="st0" x1="405.3" y1="343.6" x2="405.3" y2="486.2"/>
		<path class="st1" d="M447.5,148.3h-1.9l-40.3,40.3L365,148.3h-1.9c-27.6,0-50,22.4-50,50v91.5h41.4v35.1h101.5v-35.1h41.4v-91.5
			C497.5,170.6,475.1,148.3,447.5,148.3z"/>
		<path class="st0" d="M456.1,315.8L456.1,315.8h41.4V198.1c0-27.5-22.3-49.8-49.8-49.8H363c-27.5,0-49.8,22.3-49.8,49.8v117.7h41.4
			l0,0"/>
		<line class="st0" x1="354.6" y1="289.8" x2="354.6" y2="486.2"/>
		<line class="st0" x1="456.1" y1="289.8" x2="456.1" y2="486.2"/>
		<rect x="396.1" y="240.2" class="st2" width="18.5" height="18.5"/>
		<rect x="396.1" y="205.1" class="st2" width="18.5" height="18.5"/>
	</g>
	<rect x="213.2" y="171.6" class="st3" width="72.3" height="314.5"/>
	<rect x="140.8" y="301" class="st3" width="72.3" height="185.2"/>
	<polyline class="st0" points="284.2,148.3 213.2,148.3 213.2,486.2 	"/>
	<rect x="68.5" y="430.3" class="st3" width="72.3" height="55.9"/>
	<polyline class="st0" points="187.2,276 140.8,276 140.8,486.2 	"/>
	<polyline class="st0" points="114.8,405.6 68.5,405.6 68.5,486.2 	"/>
	<rect x="244.7" y="450" class="st2" width="18.5" height="18.5"/>
	<rect x="244.7" y="414.9" class="st2" width="18.5" height="18.5"/>
	<rect x="244.7" y="379.8" class="st2" width="18.5" height="18.5"/>
	<line class="st0" x1="32.5" y1="510.6" x2="497.5" y2="510.6"/>
</g>
</svg>
