<?xml version="1.0" encoding="utf-8"?>
<!-- Generator: Adobe Illustrator 20.1.0, SVG Export Plug-In . SVG Version: 6.00 Build 0)  -->
<svg version="1.1" id="Layer_1" xmlns="http://www.w3.org/2000/svg" xmlns:xlink="http://www.w3.org/1999/xlink" x="0px" y="0px"
	 viewBox="0 0 530 530" style="enable-background:new 0 0 530 530;" xml:space="preserve">
<style type="text/css">
	.st0{fill:none;stroke:#303036;stroke-width:18;stroke-miterlimit:10;}
	.st1{fill:#4A9FD9;}
	.st2{fill:none;stroke:#FFFFFF;stroke-width:18;stroke-miterlimit:10;}
</style>
<g>
	<g>
		<path class="st0" d="M392.9,326.6h22.2v-81.3c0-106-86.7-192.7-192.7-192.7h0c-106,0-192.7,86.7-192.7,192.7v81.3h22.8"/>
		<path class="st0" d="M333.5,133.5c-28.9-27.9-68.1-45.1-111.1-45.1h0c-43,0-82.3,17.2-111.1,45.1"/>
		<path class="st0" d="M72.8,346.9v22.8c0,14.7,11.9,26.7,26.7,26.7h0c14.7,0,26.7-11.9,26.7-26.7v-86.8c0-14.7-11.9-26.7-26.7-26.7
			h0c-14.7,0-26.7,11.9-26.7,26.7v23.4"/>
		<path class="st0" d="M372.6,306.2v-23.4c0-14.7-11.9-26.7-26.7-26.7h0c-14.7,0-26.7,11.9-26.7,26.7v86.8
			c0,14.7,11.9,26.7,26.7,26.7h0c14.7,0,26.7-11.9,26.7-26.7v-22.8"/>
		<path class="st0" d="M251.5,492.5c67.1-1.3,121.1-56.2,121.1-123.6v-22.1"/>
		<path class="st0" d="M251.5,513h-37.8c-11.3,0-20.5-9.2-20.5-20.5v0c0-11.3,9.2-20.5,20.5-20.5h37.8V513z"/>
		<circle class="st0" cx="72.8" cy="326.6" r="20.3"/>
		<circle class="st0" cx="372.6" cy="326.6" r="20.3"/>
	</g>
	<rect x="223" y="9.3" class="st1" width="287.1" height="191.6"/>
	<line class="st2" x1="278.8" y1="142.8" x2="415.1" y2="142.8"/>
	<line class="st2" x1="278.8" y1="104.7" x2="455.8" y2="104.7"/>
	<line class="st2" x1="278.8" y1="66.5" x2="345.9" y2="66.5"/>
	<polygon class="st1" points="307,191.7 251.5,191.7 251.5,247.2 	"/>
</g>
</svg>
