<?xml version="1.0" encoding="utf-8"?>
<!-- Generator: Adobe Illustrator 20.1.0, SVG Export Plug-In . SVG Version: 6.00 Build 0)  -->
<svg version="1.1" id="Layer_1" xmlns="http://www.w3.org/2000/svg" xmlns:xlink="http://www.w3.org/1999/xlink" x="0px" y="0px"
	 viewBox="0 0 240 255.8" style="enable-background:new 0 0 240 255.8;" xml:space="preserve">
<style type="text/css">
	.st0{fill:#4A9FD9;}
</style>
<g>
	<path class="st0" d="M66.6,228.7C30.5,209.1,8,171.4,8,130.3C8,100.9,19.3,73.1,39.8,52c1.5-1.6,1.5-4.1-0.1-5.7
		c-1.6-1.5-4.1-1.5-5.7,0.1C12.1,69,0,98.8,0,130.3c0,44.1,24.1,84.5,62.8,105.5c0.6,0.3,1.3,0.5,1.9,0.5c1.4,0,2.8-0.8,3.5-2.1
		C69.3,232.2,68.6,229.8,66.6,228.7z"/>
	<path class="st0" d="M205.9,46.5c-1.5-1.6-4.1-1.6-5.7-0.1c-1.6,1.5-1.6,4.1-0.1,5.7c20.5,21,31.8,48.8,31.8,78.2
		c0,41.1-22.5,78.9-58.6,98.5c-1.9,1.1-2.7,3.5-1.6,5.4c0.7,1.3,2.1,2.1,3.5,2.1c0.6,0,1.3-0.2,1.9-0.5
		c38.7-21,62.8-61.5,62.8-105.5C240,98.8,227.9,69,205.9,46.5z"/>
	<path class="st0" d="M84.4,201.3c0.6,0.3,1.2,0.4,1.8,0.4c1.5,0,2.9-0.8,3.6-2.2c1-2,0.2-4.4-1.8-5.4
		c-24.4-12.2-39.5-36.7-39.5-63.9c0-4.2,0.4-8.4,1.1-12.5c0.4-2.2-1.1-4.2-3.2-4.6c-2.2-0.4-4.2,1.1-4.6,3.2
		c-0.8,4.5-1.2,9.2-1.2,13.8C40.5,160.5,57.3,187.7,84.4,201.3z"/>
	<path class="st0" d="M191.5,130.3c0,27.2-15.1,51.7-39.5,63.9c-2,1-2.8,3.4-1.8,5.4c0.7,1.4,2.1,2.2,3.6,2.2c0.6,0,1.2-0.1,1.8-0.4
		c27.1-13.6,43.9-40.8,43.9-71.1c0-4.6-0.4-9.3-1.2-13.8c-0.4-2.2-2.5-3.6-4.6-3.2c-2.2,0.4-3.6,2.5-3.2,4.6
		C191.1,121.9,191.5,126.1,191.5,130.3z"/>
	<path class="st0" d="M56.3,64.8H184c3.3,0,6-2.7,6-6V6c0-3.3-2.7-6-6-6h-12.3c-2.2,0-4,1.8-4,4s1.8,4,4,4H182v48.8H58.3V8H155
		c2.2,0,4-1.8,4-4s-1.8-4-4-4H56.3c-3.3,0-6,2.7-6,6v52.8C50.3,62.1,52.9,64.8,56.3,64.8z"/>
	<path class="st0" d="M100.8,32.4c0,10.7,8.7,19.4,19.4,19.4s19.4-8.7,19.4-19.4S130.8,13,120.1,13S100.8,21.7,100.8,32.4z
		 M131.5,32.4c0,6.3-5.1,11.4-11.4,11.4s-11.4-5.1-11.4-11.4S113.9,21,120.1,21S131.5,26.1,131.5,32.4z"/>
	<path class="st0" d="M68.4,43.8c-2.2,0-4,1.8-4,4s1.8,4,4,4c10.7,0,19.4-8.7,19.4-19.4S79.1,13,68.4,13c-2.2,0-4,1.8-4,4s1.8,4,4,4
		c6.3,0,11.4,5.1,11.4,11.4S74.6,43.8,68.4,43.8z"/>
	<path class="st0" d="M171.9,21c2.2,0,4-1.8,4-4s-1.8-4-4-4c-10.7,0-19.4,8.7-19.4,19.4s8.7,19.4,19.4,19.4c2.2,0,4-1.8,4-4
		s-1.8-4-4-4c-6.3,0-11.4-5.1-11.4-11.4S165.6,21,171.9,21z"/>
	<path class="st0" d="M120.1,131c2.2,0,4-1.8,4-4V98.3c0-1.6-1-3.1-2.5-3.7c-1.5-0.6-3.2-0.3-4.4,0.9l-11.8,11.8
		c-1.6,1.6-1.6,4.1,0,5.7c1.6,1.6,4.1,1.6,5.7,0l5-5V127C116.1,129.2,117.9,131,120.1,131z"/>
	<path class="st0" d="M154,228.3h-21.2v-64.9c4.1-3.6,6.7-8.8,6.7-14.6c0-1.5-0.2-3-0.5-4.4c8.2-2.5,15.9-6.5,22.6-12
		c1.7-1.4,2-3.9,0.6-5.6c-1.4-1.7-3.9-2-5.6-0.6c-10.2,8.4-23.1,13-36.4,13c-30.3,0-55.2-23.6-57.2-53.4h114.5
		c-0.5,7.4-2.4,14.5-5.7,21.2c-1,2-0.2,4.4,1.8,5.4c2,1,4.4,0.2,5.4-1.8c4.4-9,6.6-18.7,6.6-28.7v-4H54.8v4
		c0,29.5,19.6,54.5,46.5,62.6c-0.3,1.4-0.5,2.9-0.5,4.4c0,5.8,2.6,11,6.7,14.6v64.9H86.3c-3.3,0-6,2.7-6,6v15.5c0,3.3,2.7,6,6,6H154
		c3.3,0,6-2.7,6-6v-15.5C160,231,157.3,228.3,154,228.3z M120.1,147.1c3.7,0,7.4-0.3,11.1-1c0.2,0.8,0.3,1.7,0.3,2.6
		c0,6.3-5.1,11.4-11.4,11.4s-11.4-5.1-11.4-11.4c0-0.9,0.1-1.7,0.3-2.6C112.7,146.8,116.3,147.1,120.1,147.1z M115.4,167.5
		c1.5,0.4,3.1,0.6,4.7,0.6c1.6,0,3.2-0.2,4.7-0.6v60.7h-9.4V167.5z M152,247.8H88.3v-11.5H152V247.8z"/>
</g>
</svg>
